<svg id="svg" version="1.1" xmlns="http://www.w3.org/2000/svg" xmlns:xlink="http://www.w3.org/1999/xlink" width="400" height="400" viewBox="0, 0, 400,400"><g id="svgg"><path id="path0" d="M124.400 57.600 C 124.400 57.838,122.875 58.000,120.624 58.000 C 118.537 58.000,116.737 58.179,116.600 58.400 C 116.464 58.620,115.463 58.800,114.376 58.800 C 113.289 58.800,112.400 58.980,112.400 59.200 C 112.400 59.420,111.680 59.600,110.800 59.600 C 109.920 59.600,109.200 59.780,109.200 60.000 C 109.200 60.220,108.480 60.400,107.600 60.400 C 106.720 60.400,106.000 60.580,106.000 60.800 C 106.000 61.020,105.640 61.200,105.200 61.200 C 104.760 61.200,104.400 61.380,104.400 61.600 C 104.400 61.820,103.860 62.000,103.200 62.000 C 102.540 62.000,102.000 62.180,102.000 62.400 C 102.000 62.620,101.640 62.800,101.200 62.800 C 100.760 62.800,100.400 62.980,100.400 63.200 C 100.400 63.420,100.040 63.600,99.600 63.600 C 99.160 63.600,98.800 63.780,98.800 64.000 C 98.800 64.220,98.440 64.400,98.000 64.400 C 97.560 64.400,97.200 64.580,97.200 64.800 C 97.200 65.020,96.840 65.200,96.400 65.200 C 95.960 65.200,95.600 65.380,95.600 65.600 C 95.600 65.820,95.240 66.000,94.800 66.000 C 94.360 66.000,94.000 66.180,94.000 66.400 C 94.000 66.620,93.680 66.800,93.288 66.800 C 92.897 66.800,92.317 67.160,92.000 67.600 C 91.683 68.040,91.143 68.400,90.800 68.400 C 90.457 68.400,89.917 68.760,89.600 69.200 C 89.283 69.640,88.779 70.000,88.480 70.000 C 88.182 70.000,87.246 70.720,86.400 71.600 C 85.554 72.480,84.659 73.200,84.411 73.200 C 83.850 73.200,75.600 81.506,75.600 82.070 C 75.600 82.295,75.060 82.983,74.400 83.600 C 73.740 84.217,73.200 84.937,73.200 85.200 C 73.200 85.463,72.660 86.183,72.000 86.800 C 71.340 87.417,70.800 88.209,70.800 88.560 C 70.800 88.912,70.620 89.200,70.400 89.200 C 70.180 89.200,70.000 89.478,70.000 89.817 C 70.000 90.156,69.640 90.820,69.200 91.292 C 68.760 91.764,68.400 92.387,68.400 92.675 C 68.400 92.964,68.220 93.200,68.000 93.200 C 67.780 93.200,67.600 93.639,67.600 94.176 C 67.600 94.713,67.420 95.264,67.200 95.400 C 66.980 95.536,66.800 95.997,66.800 96.424 C 66.800 96.851,66.620 97.200,66.400 97.200 C 66.180 97.200,66.000 97.560,66.000 98.000 C 66.000 98.440,65.820 98.800,65.600 98.800 C 65.380 98.800,65.200 99.160,65.200 99.600 C 65.200 100.040,65.020 100.400,64.800 100.400 C 64.580 100.400,64.400 100.940,64.400 101.600 C 64.400 102.260,64.220 102.800,64.000 102.800 C 63.780 102.800,63.600 103.160,63.600 103.600 C 63.600 104.040,63.420 104.400,63.200 104.400 C 62.980 104.400,62.800 105.109,62.800 105.976 C 62.800 106.843,62.620 107.664,62.400 107.800 C 62.180 107.936,62.000 108.847,62.000 109.824 C 62.000 110.801,61.820 111.600,61.600 111.600 C 61.378 111.600,61.200 112.659,61.200 113.976 C 61.200 115.283,61.020 116.464,60.800 116.600 C 60.556 116.751,60.400 119.871,60.400 124.624 C 60.400 129.541,60.547 132.400,60.800 132.400 C 61.029 132.400,61.200 133.600,61.200 135.200 C 61.200 136.800,61.371 138.000,61.600 138.000 C 61.820 138.000,62.000 138.799,62.000 139.776 C 62.000 140.753,62.180 141.664,62.400 141.800 C 62.620 141.936,62.800 142.577,62.800 143.224 C 62.800 144.264,62.939 144.400,64.000 144.400 C 64.660 144.400,65.200 144.220,65.200 144.000 C 65.200 143.780,65.560 143.600,66.000 143.600 C 66.440 143.600,66.800 143.420,66.800 143.200 C 66.800 142.980,67.036 142.800,67.325 142.800 C 67.613 142.800,68.236 142.440,68.708 142.000 C 69.180 141.560,69.844 141.200,70.183 141.200 C 70.522 141.200,70.800 141.020,70.800 140.800 C 70.800 140.580,71.160 140.400,71.600 140.400 C 72.040 140.400,72.400 140.220,72.400 140.000 C 72.400 139.780,72.760 139.600,73.200 139.600 C 73.640 139.600,74.000 139.420,74.000 139.200 C 74.000 138.980,74.360 138.800,74.800 138.800 C 75.240 138.800,75.600 138.620,75.600 138.400 C 75.600 138.180,75.960 138.000,76.400 138.000 C 76.840 138.000,77.200 137.820,77.200 137.600 C 77.200 137.380,77.560 137.200,78.000 137.200 C 78.440 137.200,78.800 137.020,78.800 136.800 C 78.800 136.580,79.160 136.400,79.600 136.400 C 80.040 136.400,80.400 136.220,80.400 136.000 C 80.400 135.780,80.760 135.600,81.200 135.600 C 81.640 135.600,82.000 135.420,82.000 135.200 C 82.000 134.980,82.360 134.800,82.800 134.800 C 83.240 134.800,83.600 134.620,83.600 134.400 C 83.600 134.180,83.960 134.000,84.400 134.000 C 84.840 134.000,85.200 133.820,85.200 133.600 C 85.200 133.380,85.560 133.200,86.000 133.200 C 86.440 133.200,86.800 133.020,86.800 132.800 C 86.800 132.580,87.036 132.400,87.325 132.400 C 87.613 132.400,88.236 132.040,88.708 131.600 C 89.180 131.160,89.844 130.800,90.183 130.800 C 90.522 130.800,90.800 130.620,90.800 130.400 C 90.800 130.180,91.160 130.000,91.600 130.000 C 92.040 130.000,92.400 129.820,92.400 129.600 C 92.400 129.380,92.760 129.200,93.200 129.200 C 93.640 129.200,94.000 129.020,94.000 128.800 C 94.000 128.580,94.360 128.400,94.800 128.400 C 95.240 128.400,95.600 128.220,95.600 128.000 C 95.600 127.780,95.960 127.600,96.400 127.600 C 96.840 127.600,97.200 127.420,97.200 127.200 C 97.200 126.980,97.560 126.800,98.000 126.800 C 98.440 126.800,98.800 126.620,98.800 126.400 C 98.800 126.180,99.160 126.000,99.600 126.000 C 100.040 126.000,100.400 125.820,100.400 125.600 C 100.400 125.380,100.760 125.200,101.200 125.200 C 101.640 125.200,102.000 125.020,102.000 124.800 C 102.000 124.580,102.360 124.400,102.800 124.400 C 103.240 124.400,103.600 124.220,103.600 124.000 C 103.600 123.780,103.960 123.600,104.400 123.600 C 104.840 123.600,105.200 123.420,105.200 123.200 C 105.200 122.980,105.560 122.800,106.000 122.800 C 106.440 122.800,106.800 122.620,106.800 122.400 C 106.800 122.180,107.036 122.000,107.325 122.000 C 107.613 122.000,108.236 121.640,108.708 121.200 C 109.180 120.760,109.844 120.400,110.183 120.400 C 110.522 120.400,110.800 120.220,110.800 120.000 C 110.800 119.780,111.160 119.600,111.600 119.600 C 112.040 119.600,112.400 119.420,112.400 119.200 C 112.400 118.980,113.120 118.800,114.000 118.800 C 114.880 118.800,115.600 118.980,115.600 119.200 C 115.600 119.420,115.960 119.600,116.400 119.600 C 116.840 119.600,117.200 119.780,117.200 120.000 C 117.200 120.220,117.560 120.400,118.000 120.400 C 118.440 120.400,118.800 120.580,118.800 120.800 C 118.800 121.020,119.160 121.200,119.600 121.200 C 120.040 121.200,120.400 121.380,120.400 121.600 C 120.400 121.820,120.760 122.000,121.200 122.000 C 121.640 122.000,122.000 122.180,122.000 122.400 C 122.000 122.620,122.360 122.800,122.800 122.800 C 123.240 122.800,123.600 122.980,123.600 123.200 C 123.600 123.420,123.960 123.600,124.400 123.600 C 124.840 123.600,125.200 123.780,125.200 124.000 C 125.200 124.220,125.560 124.400,126.000 124.400 C 126.440 124.400,126.800 124.580,126.800 124.800 C 126.800 125.020,127.078 125.200,127.417 125.200 C 127.756 125.200,128.420 125.560,128.892 126.000 C 129.364 126.440,129.987 126.800,130.275 126.800 C 130.564 126.800,130.800 126.980,130.800 127.200 C 130.800 127.420,131.160 127.600,131.600 127.600 C 132.040 127.600,132.400 127.780,132.400 128.000 C 132.400 128.220,132.760 128.400,133.200 128.400 C 133.640 128.400,134.000 128.580,134.000 128.800 C 134.000 129.020,134.360 129.200,134.800 129.200 C 135.240 129.200,135.600 129.380,135.600 129.600 C 135.600 129.820,135.960 130.000,136.400 130.000 C 136.840 130.000,137.200 130.180,137.200 130.400 C 137.200 130.620,137.560 130.800,138.000 130.800 C 138.440 130.800,138.800 130.980,138.800 131.200 C 138.800 131.420,139.160 131.600,139.600 131.600 C 140.040 131.600,140.400 131.780,140.400 132.000 C 140.400 132.220,140.760 132.400,141.200 132.400 C 141.640 132.400,142.000 132.580,142.000 132.800 C 142.000 133.020,142.360 133.200,142.800 133.200 C 143.240 133.200,143.600 133.020,143.600 132.800 C 143.600 132.580,143.960 132.400,144.400 132.400 C 144.840 132.400,145.200 132.220,145.200 132.000 C 145.200 131.780,145.478 131.600,145.817 131.600 C 146.156 131.600,146.820 131.240,147.292 130.800 C 147.764 130.360,148.387 130.000,148.675 130.000 C 148.964 130.000,149.200 129.820,149.200 129.600 C 149.200 129.380,149.560 129.200,150.000 129.200 C 150.440 129.200,150.800 129.020,150.800 128.800 C 150.800 128.580,151.160 128.400,151.600 128.400 C 152.040 128.400,152.400 128.220,152.400 128.000 C 152.400 127.780,152.760 127.600,153.200 127.600 C 153.640 127.600,154.000 127.420,154.000 127.200 C 154.000 126.980,154.360 126.800,154.800 126.800 C 155.240 126.800,155.600 126.620,155.600 126.400 C 155.600 126.180,155.960 126.000,156.400 126.000 C 156.840 126.000,157.200 125.820,157.200 125.600 C 157.200 125.380,157.560 125.200,158.000 125.200 C 158.440 125.200,158.800 125.020,158.800 124.800 C 158.800 124.580,159.160 124.400,159.600 124.400 C 160.040 124.400,160.400 124.220,160.400 124.000 C 160.400 123.780,160.760 123.600,161.200 123.600 C 161.640 123.600,162.000 123.420,162.000 123.200 C 162.000 122.980,162.360 122.800,162.800 122.800 C 163.240 122.800,163.600 122.620,163.600 122.400 C 163.600 122.180,163.960 122.000,164.400 122.000 C 164.840 122.000,165.200 121.820,165.200 121.600 C 165.200 121.380,165.560 121.200,166.000 121.200 C 166.440 121.200,166.800 121.020,166.800 120.800 C 166.800 120.580,167.160 120.400,167.600 120.400 C 168.040 120.400,168.400 120.220,168.400 120.000 C 168.400 119.780,168.636 119.600,168.925 119.600 C 169.213 119.600,169.836 119.240,170.308 118.800 C 170.780 118.360,171.444 118.000,171.783 118.000 C 172.122 118.000,172.400 117.820,172.400 117.600 C 172.400 117.380,172.760 117.200,173.200 117.200 C 173.640 117.200,174.000 117.020,174.000 116.800 C 174.000 116.580,174.360 116.400,174.800 116.400 C 175.240 116.400,175.600 116.220,175.600 116.000 C 175.600 115.780,175.960 115.600,176.400 115.600 C 176.840 115.600,177.200 115.420,177.200 115.200 C 177.200 114.980,177.560 114.800,178.000 114.800 C 178.440 114.800,178.800 114.620,178.800 114.400 C 178.800 114.180,179.160 114.000,179.600 114.000 C 180.040 114.000,180.400 113.820,180.400 113.600 C 180.400 113.380,180.760 113.200,181.200 113.200 C 181.640 113.200,182.000 113.020,182.000 112.800 C 182.000 112.580,182.360 112.400,182.800 112.400 C 183.240 112.400,183.600 112.220,183.600 112.000 C 183.600 111.780,183.960 111.600,184.400 111.600 C 184.840 111.600,185.200 111.420,185.200 111.200 C 185.200 110.980,185.560 110.800,186.000 110.800 C 186.440 110.800,186.800 110.620,186.800 110.400 C 186.800 110.180,187.160 110.000,187.600 110.000 C 188.040 110.000,188.400 109.820,188.400 109.600 C 188.400 109.380,188.760 109.200,189.200 109.200 C 189.640 109.200,190.000 109.064,190.000 108.898 C 190.000 108.731,190.540 108.356,191.200 108.064 C 192.444 107.514,193.022 104.432,192.000 103.800 C 191.780 103.664,191.600 103.023,191.600 102.376 C 191.600 101.729,191.420 101.200,191.200 101.200 C 190.980 101.200,190.800 100.840,190.800 100.400 C 190.800 99.960,190.620 99.600,190.400 99.600 C 190.180 99.600,190.000 99.060,190.000 98.400 C 190.000 97.740,189.820 97.200,189.600 97.200 C 189.380 97.200,189.200 96.840,189.200 96.400 C 189.200 95.960,189.020 95.600,188.800 95.600 C 188.580 95.600,188.400 95.240,188.400 94.800 C 188.400 94.360,188.220 94.000,188.000 94.000 C 187.780 94.000,187.600 93.640,187.600 93.200 C 187.600 92.760,187.420 92.400,187.200 92.400 C 186.980 92.400,186.800 92.080,186.800 91.688 C 186.800 91.297,186.440 90.717,186.000 90.400 C 185.560 90.083,185.200 89.543,185.200 89.200 C 185.200 88.857,184.840 88.317,184.400 88.000 C 183.960 87.683,183.600 87.143,183.600 86.800 C 183.600 86.457,183.240 85.917,182.800 85.600 C 182.360 85.283,182.000 84.792,182.000 84.509 C 182.000 83.882,168.987 70.800,168.363 70.800 C 168.120 70.800,167.417 70.260,166.800 69.600 C 166.183 68.940,165.391 68.400,165.040 68.400 C 164.688 68.400,164.400 68.220,164.400 68.000 C 164.400 67.780,164.080 67.600,163.688 67.600 C 163.297 67.600,162.717 67.240,162.400 66.800 C 162.083 66.360,161.503 66.000,161.112 66.000 C 160.720 66.000,160.400 65.820,160.400 65.600 C 160.400 65.380,160.040 65.200,159.600 65.200 C 159.160 65.200,158.800 65.020,158.800 64.800 C 158.800 64.580,158.440 64.400,158.000 64.400 C 157.560 64.400,157.200 64.220,157.200 64.000 C 157.200 63.780,156.840 63.600,156.400 63.600 C 155.960 63.600,155.600 63.420,155.600 63.200 C 155.600 62.980,155.251 62.800,154.824 62.800 C 154.397 62.800,153.936 62.620,153.800 62.400 C 153.664 62.180,153.113 62.000,152.576 62.000 C 152.039 62.000,151.600 61.820,151.600 61.600 C 151.600 61.380,151.060 61.200,150.400 61.200 C 149.740 61.200,149.200 61.020,149.200 60.800 C 149.200 60.580,148.480 60.400,147.600 60.400 C 146.720 60.400,146.000 60.220,146.000 60.000 C 146.000 59.780,145.280 59.600,144.400 59.600 C 143.520 59.600,142.800 59.420,142.800 59.200 C 142.800 58.980,142.091 58.800,141.224 58.800 C 140.357 58.800,139.536 58.620,139.400 58.400 C 139.264 58.180,137.914 58.000,136.400 58.000 C 134.886 58.000,133.536 57.820,133.400 57.600 C 133.260 57.373,131.263 57.200,128.776 57.200 C 126.125 57.200,124.400 57.358,124.400 57.600 " stroke="none" fill="#3bb4fc" fill-rule="evenodd"></path><path id="path1" d="M221.200 97.600 C 221.200 97.820,220.840 98.000,220.400 98.000 C 219.960 98.000,219.599 98.135,219.597 98.300 C 219.593 98.659,217.656 99.600,216.920 99.600 C 216.634 99.600,216.400 99.780,216.400 100.000 C 216.400 100.220,216.040 100.400,215.600 100.400 C 215.160 100.400,214.800 100.580,214.800 100.800 C 214.800 101.020,214.440 101.200,214.000 101.200 C 213.560 101.200,213.200 101.380,213.200 101.600 C 213.200 101.820,212.840 102.000,212.400 102.000 C 211.960 102.000,211.600 102.180,211.600 102.400 C 211.600 102.620,211.240 102.800,210.800 102.800 C 210.360 102.800,209.999 102.935,209.997 103.100 C 209.993 103.451,208.063 104.400,207.354 104.400 C 207.086 104.400,206.807 104.541,206.733 104.714 C 206.660 104.886,205.250 105.698,203.600 106.518 C 199.888 108.362,198.240 109.310,198.067 109.700 C 197.993 109.865,197.588 110.000,197.167 110.000 C 196.745 110.000,196.400 110.180,196.400 110.400 C 196.400 110.620,196.040 110.800,195.600 110.800 C 195.160 110.800,194.799 110.935,194.797 111.100 C 194.793 111.459,192.856 112.400,192.120 112.400 C 191.834 112.400,191.600 112.580,191.600 112.800 C 191.600 113.020,191.240 113.200,190.800 113.200 C 190.360 113.200,190.000 113.380,190.000 113.600 C 190.000 113.820,189.640 114.000,189.200 114.000 C 188.760 114.000,188.400 114.180,188.400 114.400 C 188.400 114.620,188.040 114.800,187.600 114.800 C 187.160 114.800,186.800 114.980,186.800 115.200 C 186.800 115.420,186.522 115.600,186.183 115.600 C 185.844 115.600,185.180 115.960,184.708 116.400 C 184.236 116.840,183.448 117.200,182.958 117.200 C 182.468 117.200,182.007 117.335,181.933 117.500 C 181.813 117.770,179.711 118.978,177.303 120.160 C 176.810 120.402,176.405 120.735,176.403 120.900 C 176.401 121.065,176.166 121.200,175.880 121.200 C 175.144 121.200,173.207 122.141,173.203 122.500 C 173.201 122.665,172.840 122.800,172.400 122.800 C 171.960 122.800,171.600 122.980,171.600 123.200 C 171.600 123.420,171.240 123.600,170.800 123.600 C 170.360 123.600,169.999 123.735,169.997 123.900 C 169.993 124.259,168.056 125.200,167.320 125.200 C 167.034 125.200,166.800 125.380,166.800 125.600 C 166.800 125.820,166.440 126.000,166.000 126.000 C 165.560 126.000,165.200 126.180,165.200 126.400 C 165.200 126.620,164.840 126.800,164.400 126.800 C 163.960 126.800,163.600 126.980,163.600 127.200 C 163.600 127.420,163.240 127.600,162.800 127.600 C 162.360 127.600,162.000 127.780,162.000 128.000 C 162.000 128.220,161.640 128.400,161.200 128.400 C 160.760 128.400,160.399 128.535,160.397 128.700 C 160.393 129.051,158.463 130.000,157.754 130.000 C 157.486 130.000,157.207 130.135,157.133 130.300 C 157.060 130.465,155.920 131.159,154.600 131.843 C 149.783 134.338,148.597 135.006,148.467 135.300 C 148.393 135.465,147.988 135.600,147.567 135.600 C 147.145 135.600,146.800 135.780,146.800 136.000 C 146.800 136.220,146.440 136.400,146.000 136.400 C 145.560 136.400,145.200 136.536,145.200 136.702 C 145.200 138.290,139.614 137.582,138.867 135.900 C 138.793 135.735,138.514 135.600,138.246 135.600 C 137.537 135.600,135.607 134.651,135.603 134.300 C 135.601 134.135,135.240 134.000,134.800 134.000 C 134.360 134.000,134.000 133.820,134.000 133.600 C 134.000 133.380,133.640 133.200,133.200 133.200 C 132.760 133.200,132.400 133.020,132.400 132.800 C 132.400 132.580,132.040 132.400,131.600 132.400 C 131.160 132.400,130.800 132.220,130.800 132.000 C 130.800 131.780,130.440 131.600,130.000 131.600 C 129.560 131.600,129.200 131.420,129.200 131.200 C 129.200 130.980,128.840 130.800,128.400 130.800 C 127.960 130.800,127.600 130.620,127.600 130.400 C 127.600 130.180,127.366 130.000,127.080 130.000 C 126.344 130.000,124.407 129.059,124.403 128.700 C 124.401 128.535,124.040 128.400,123.600 128.400 C 123.160 128.400,122.800 128.220,122.800 128.000 C 122.800 127.780,122.440 127.600,122.000 127.600 C 121.560 127.600,121.200 127.462,121.200 127.294 C 121.200 127.126,120.525 126.678,119.700 126.299 C 118.875 125.920,117.430 125.158,116.489 124.605 C 114.733 123.573,113.200 123.291,113.200 124.000 C 113.200 124.220,112.840 124.400,112.400 124.400 C 111.960 124.400,111.600 124.580,111.600 124.800 C 111.600 125.020,111.240 125.200,110.800 125.200 C 110.360 125.200,110.000 125.380,110.000 125.600 C 110.000 125.820,109.640 126.000,109.200 126.000 C 108.760 126.000,108.400 126.180,108.400 126.400 C 108.400 126.620,108.122 126.800,107.783 126.800 C 107.444 126.800,106.780 127.160,106.308 127.600 C 105.836 128.040,105.048 128.400,104.558 128.400 C 104.068 128.400,103.607 128.541,103.533 128.714 C 103.460 128.886,102.050 129.698,100.400 130.518 C 96.688 132.362,95.040 133.310,94.867 133.700 C 94.793 133.865,94.388 134.000,93.967 134.000 C 93.545 134.000,93.200 134.180,93.200 134.400 C 93.200 134.620,92.840 134.800,92.400 134.800 C 91.960 134.800,91.600 134.980,91.600 135.200 C 91.600 135.420,91.240 135.600,90.800 135.600 C 90.360 135.600,89.999 135.735,89.997 135.900 C 89.993 136.259,88.056 137.200,87.320 137.200 C 87.034 137.200,86.800 137.380,86.800 137.600 C 86.800 137.820,86.440 138.000,86.000 138.000 C 85.560 138.000,85.200 138.180,85.200 138.400 C 85.200 138.620,84.840 138.800,84.400 138.800 C 83.960 138.800,83.600 138.980,83.600 139.200 C 83.600 139.420,83.240 139.600,82.800 139.600 C 82.360 139.600,82.000 139.780,82.000 140.000 C 82.000 140.220,81.640 140.400,81.200 140.400 C 80.760 140.400,80.399 140.535,80.397 140.700 C 80.393 141.059,78.456 142.000,77.720 142.000 C 77.434 142.000,77.200 142.159,77.200 142.353 C 77.200 142.548,76.885 142.807,76.500 142.929 C 76.115 143.051,75.350 143.409,74.800 143.725 C 74.250 144.041,73.035 144.682,72.100 145.150 C 68.652 146.874,66.997 147.808,66.867 148.100 C 66.793 148.265,66.388 148.400,65.967 148.400 C 65.545 148.400,65.200 148.580,65.200 148.800 C 65.200 149.020,64.840 149.200,64.400 149.200 C 63.960 149.200,63.599 149.335,63.597 149.500 C 63.593 149.859,61.656 150.800,60.920 150.800 C 60.634 150.800,60.400 150.980,60.400 151.200 C 60.400 151.420,60.040 151.600,59.600 151.600 C 59.160 151.600,58.800 151.780,58.800 152.000 C 58.800 152.220,58.440 152.400,58.000 152.400 C 57.560 152.400,57.200 152.580,57.200 152.800 C 57.200 153.020,56.840 153.200,56.400 153.200 C 55.960 153.200,55.600 153.380,55.600 153.600 C 55.600 153.820,55.240 154.000,54.800 154.000 C 54.360 154.000,54.000 154.180,54.000 154.400 C 54.000 154.620,53.640 154.800,53.200 154.800 C 52.760 154.800,52.400 154.980,52.400 155.200 C 52.400 155.420,52.122 155.600,51.783 155.600 C 51.444 155.600,50.780 155.960,50.308 156.400 C 49.836 156.840,49.168 157.206,48.825 157.213 C 46.694 157.256,46.786 155.807,46.897 187.446 L 47.000 216.600 48.000 216.488 C 48.550 216.427,49.060 216.202,49.133 215.988 C 49.207 215.775,49.494 215.600,49.771 215.600 C 50.049 215.600,50.602 215.240,51.000 214.800 C 51.398 214.360,51.974 214.000,52.279 214.000 C 52.584 214.000,53.220 213.640,53.692 213.200 C 54.164 212.760,54.967 212.400,55.475 212.400 C 55.984 212.400,56.400 212.262,56.400 212.094 C 56.400 211.926,57.120 211.477,58.000 211.096 L 59.600 210.402 59.600 188.373 C 59.600 165.104,59.593 165.200,61.371 165.200 C 61.717 165.200,62.000 165.020,62.000 164.800 C 62.000 164.580,62.360 164.400,62.800 164.400 C 63.240 164.400,63.600 164.220,63.600 164.000 C 63.600 163.780,63.960 163.600,64.400 163.600 C 64.840 163.600,65.200 163.420,65.200 163.200 C 65.200 162.980,65.560 162.800,66.000 162.800 C 66.440 162.800,66.801 162.665,66.803 162.500 C 66.807 162.149,68.737 161.200,69.446 161.200 C 69.714 161.200,69.993 161.063,70.067 160.896 C 70.140 160.729,71.775 159.803,73.700 158.838 C 75.625 157.874,77.200 156.930,77.200 156.742 C 77.200 156.554,77.560 156.400,78.000 156.400 C 78.440 156.400,78.800 156.220,78.800 156.000 C 78.800 155.780,79.160 155.600,79.600 155.600 C 80.040 155.600,80.400 155.420,80.400 155.200 C 80.400 154.980,80.760 154.800,81.200 154.800 C 81.640 154.800,82.000 154.620,82.000 154.400 C 82.000 154.180,82.360 154.000,82.800 154.000 C 83.240 154.000,83.601 153.865,83.603 153.700 C 83.607 153.341,85.544 152.400,86.280 152.400 C 86.566 152.400,86.800 152.220,86.800 152.000 C 86.800 151.780,87.160 151.600,87.600 151.600 C 88.040 151.600,88.400 151.420,88.400 151.200 C 88.400 150.980,88.760 150.800,89.200 150.800 C 89.640 150.800,90.000 150.620,90.000 150.400 C 90.000 150.180,90.360 150.000,90.800 150.000 C 91.240 150.000,91.600 149.820,91.600 149.600 C 91.600 149.380,91.960 149.200,92.400 149.200 C 92.840 149.200,93.200 149.020,93.200 148.800 C 93.200 148.580,93.560 148.400,94.000 148.400 C 94.440 148.400,94.800 148.241,94.800 148.047 C 94.800 147.852,95.115 147.593,95.500 147.471 C 95.885 147.349,96.650 146.989,97.200 146.672 C 97.750 146.354,98.740 145.854,99.400 145.561 C 100.060 145.268,101.078 144.707,101.662 144.314 C 102.246 143.921,102.912 143.600,103.142 143.600 C 103.372 143.600,104.360 143.060,105.338 142.400 C 106.316 141.740,107.405 141.200,107.758 141.200 C 108.111 141.200,108.400 141.020,108.400 140.800 C 108.400 140.580,108.760 140.400,109.200 140.400 C 109.640 140.400,110.000 140.220,110.000 140.000 C 110.000 139.780,110.360 139.600,110.800 139.600 C 111.240 139.600,111.600 139.420,111.600 139.200 C 111.600 138.980,111.960 138.800,112.400 138.800 C 112.840 138.800,113.200 138.620,113.200 138.400 C 113.200 137.586,114.433 137.898,117.000 139.364 C 117.660 139.741,118.515 140.149,118.900 140.271 C 119.285 140.393,119.600 140.652,119.600 140.847 C 119.600 141.041,119.960 141.200,120.400 141.200 C 120.840 141.200,121.200 141.380,121.200 141.600 C 121.200 141.820,121.560 142.000,122.000 142.000 C 122.440 142.000,122.800 142.180,122.800 142.400 C 122.800 142.620,123.160 142.800,123.600 142.800 C 124.040 142.800,124.400 142.980,124.400 143.200 C 124.400 143.420,124.760 143.600,125.200 143.600 C 125.640 143.600,126.000 143.780,126.000 144.000 C 126.000 144.220,126.234 144.400,126.520 144.400 C 127.256 144.400,129.193 145.341,129.197 145.700 C 129.199 145.865,129.560 146.000,130.000 146.000 C 130.440 146.000,130.800 146.180,130.800 146.400 C 130.800 146.620,131.160 146.800,131.600 146.800 C 132.040 146.800,132.401 146.935,132.403 147.100 C 132.407 147.459,134.344 148.400,135.080 148.400 C 135.366 148.400,135.600 148.553,135.600 148.740 C 135.600 148.927,136.815 149.691,138.300 150.438 C 139.785 151.185,141.060 151.932,141.133 152.098 C 141.207 152.264,141.668 152.400,142.158 152.400 C 142.648 152.400,143.436 152.760,143.908 153.200 C 144.380 153.640,145.044 154.000,145.383 154.000 C 145.722 154.000,146.000 154.180,146.000 154.400 C 146.000 154.620,146.360 154.800,146.800 154.800 C 147.240 154.800,147.600 154.980,147.600 155.200 C 147.600 155.420,147.960 155.600,148.400 155.600 C 148.840 155.600,149.200 155.780,149.200 156.000 C 149.200 156.220,149.560 156.400,150.000 156.400 C 150.440 156.400,150.800 156.580,150.800 156.800 C 150.800 157.020,151.034 157.200,151.320 157.200 C 152.056 157.200,153.993 158.141,153.997 158.500 C 153.999 158.665,154.360 158.800,154.800 158.800 C 155.240 158.800,155.600 158.980,155.600 159.200 C 155.600 159.420,155.945 159.600,156.367 159.600 C 156.788 159.600,157.193 159.735,157.267 159.900 C 157.440 160.290,159.088 161.238,162.800 163.082 C 164.450 163.902,165.860 164.714,165.933 164.886 C 166.007 165.059,166.286 165.200,166.554 165.200 C 166.821 165.200,167.525 165.425,168.117 165.700 L 169.194 166.200 169.197 179.700 C 169.199 187.125,169.335 193.223,169.500 193.252 C 171.272 193.556,172.504 193.653,176.900 193.835 L 182.000 194.045 182.000 176.022 C 182.000 158.267,181.988 158.000,181.200 158.000 C 180.760 158.000,180.400 157.820,180.400 157.600 C 180.400 157.380,180.040 157.200,179.600 157.200 C 179.160 157.200,178.800 157.020,178.800 156.800 C 178.800 156.580,178.440 156.400,178.000 156.400 C 177.560 156.400,177.200 156.220,177.200 156.000 C 177.200 155.780,176.855 155.600,176.433 155.600 C 176.012 155.600,175.607 155.465,175.533 155.300 C 175.394 154.987,173.968 154.194,168.600 151.441 C 166.840 150.538,165.340 149.665,165.267 149.500 C 165.193 149.335,164.788 149.200,164.367 149.200 C 163.945 149.200,163.600 149.020,163.600 148.800 C 163.600 148.580,163.960 148.400,164.400 148.400 C 164.840 148.400,165.200 148.241,165.200 148.047 C 165.200 147.852,165.515 147.593,165.900 147.471 C 166.285 147.349,167.050 146.989,167.600 146.672 C 168.150 146.354,169.140 145.848,169.800 145.547 C 170.460 145.246,171.746 144.505,172.658 143.900 C 173.570 143.295,174.605 142.800,174.958 142.800 C 175.311 142.800,175.600 142.620,175.600 142.400 C 175.600 142.180,175.960 142.000,176.400 142.000 C 176.840 142.000,177.201 141.865,177.203 141.700 C 177.207 141.341,179.144 140.400,179.880 140.400 C 180.166 140.400,180.400 140.220,180.400 140.000 C 180.400 139.780,180.760 139.600,181.200 139.600 C 181.640 139.600,182.000 139.420,182.000 139.200 C 182.000 138.980,182.360 138.800,182.800 138.800 C 183.240 138.800,183.600 138.620,183.600 138.400 C 183.600 138.180,183.960 138.000,184.400 138.000 C 184.840 138.000,185.200 137.820,185.200 137.600 C 185.200 137.380,185.478 137.200,185.817 137.200 C 186.156 137.200,186.820 136.840,187.292 136.400 C 187.764 135.960,188.552 135.600,189.042 135.600 C 189.532 135.600,189.993 135.465,190.067 135.300 C 190.180 135.045,192.950 133.509,196.297 131.846 C 196.790 131.601,197.195 131.265,197.197 131.100 C 197.199 130.935,197.560 130.800,198.000 130.800 C 198.440 130.800,198.800 130.620,198.800 130.400 C 198.800 130.180,199.160 130.000,199.600 130.000 C 200.040 130.000,200.400 129.820,200.400 129.600 C 200.400 129.380,200.760 129.200,201.200 129.200 C 201.640 129.200,202.000 129.020,202.000 128.800 C 202.000 128.580,202.360 128.400,202.800 128.400 C 203.240 128.400,203.600 128.220,203.600 128.000 C 203.600 127.780,203.960 127.600,204.400 127.600 C 204.840 127.600,205.200 127.420,205.200 127.200 C 205.200 126.980,205.560 126.800,206.000 126.800 C 206.440 126.800,206.800 126.620,206.800 126.400 C 206.800 126.180,207.160 126.000,207.600 126.000 C 208.040 126.000,208.400 125.820,208.400 125.600 C 208.400 125.380,208.760 125.200,209.200 125.200 C 209.640 125.200,210.000 125.020,210.000 124.800 C 210.000 124.580,210.360 124.400,210.800 124.400 C 211.240 124.400,211.600 124.220,211.600 124.000 C 211.600 123.780,211.960 123.600,212.400 123.600 C 212.840 123.600,213.200 123.441,213.200 123.247 C 213.200 123.052,213.515 122.793,213.900 122.671 C 214.285 122.549,215.050 122.189,215.600 121.872 C 216.150 121.554,217.140 121.048,217.800 120.747 C 218.460 120.446,219.765 119.692,220.700 119.072 L 222.400 117.943 224.100 119.075 C 225.035 119.697,227.060 120.834,228.600 121.601 C 230.140 122.369,231.460 123.132,231.533 123.298 C 231.607 123.464,232.068 123.600,232.558 123.600 C 233.048 123.600,233.836 123.960,234.308 124.400 C 234.780 124.840,235.444 125.200,235.783 125.200 C 236.122 125.200,236.400 125.380,236.400 125.600 C 236.400 125.820,236.760 126.000,237.200 126.000 C 237.640 126.000,238.000 126.180,238.000 126.400 C 238.000 126.620,238.360 126.800,238.800 126.800 C 239.240 126.800,239.600 126.980,239.600 127.200 C 239.600 127.420,239.960 127.600,240.400 127.600 C 240.840 127.600,241.200 127.780,241.200 128.000 C 241.200 128.220,241.560 128.400,242.000 128.400 C 242.440 128.400,242.800 128.580,242.800 128.800 C 242.800 129.020,243.160 129.200,243.600 129.200 C 244.040 129.200,244.400 129.380,244.400 129.600 C 244.400 129.820,244.760 130.000,245.200 130.000 C 245.640 130.000,246.000 130.180,246.000 130.400 C 246.000 130.620,246.345 130.800,246.767 130.800 C 247.188 130.800,247.593 130.935,247.667 131.100 C 247.795 131.390,249.664 132.442,253.000 134.104 C 253.880 134.542,255.050 135.159,255.600 135.475 C 256.150 135.791,256.915 136.149,257.300 136.271 C 257.685 136.393,258.000 136.652,258.000 136.847 C 258.000 137.041,258.234 137.200,258.520 137.200 C 259.256 137.200,261.193 138.141,261.197 138.500 C 261.199 138.665,261.560 138.800,262.000 138.800 C 262.440 138.800,262.800 138.980,262.800 139.200 C 262.800 139.420,263.160 139.600,263.600 139.600 C 264.040 139.600,264.400 139.780,264.400 140.000 C 264.400 140.220,264.760 140.400,265.200 140.400 C 265.640 140.400,266.000 140.580,266.000 140.800 C 266.000 141.020,266.360 141.200,266.800 141.200 C 267.240 141.200,267.600 141.380,267.600 141.600 C 267.600 141.820,267.834 142.000,268.120 142.000 C 268.856 142.000,270.793 142.941,270.797 143.300 C 270.799 143.465,271.160 143.600,271.600 143.600 C 272.040 143.600,272.400 143.780,272.400 144.000 C 272.400 144.220,272.760 144.400,273.200 144.400 C 273.640 144.400,274.001 144.535,274.003 144.700 C 274.007 145.059,275.944 146.000,276.680 146.000 C 276.966 146.000,277.200 146.153,277.200 146.340 C 277.200 146.527,278.415 147.266,279.900 147.982 C 284.353 150.129,285.506 150.760,286.285 151.471 C 286.695 151.847,286.800 157.132,286.800 177.371 L 286.800 202.800 289.200 202.800 L 291.600 202.800 291.600 175.200 C 291.600 152.814,291.502 147.600,291.080 147.600 C 290.344 147.600,288.407 146.659,288.403 146.300 C 288.401 146.135,288.040 146.000,287.600 146.000 C 287.160 146.000,286.800 145.820,286.800 145.600 C 286.800 145.380,286.440 145.200,286.000 145.200 C 285.560 145.200,285.199 145.065,285.197 144.900 C 285.193 144.541,283.256 143.600,282.520 143.600 C 282.234 143.600,282.000 143.447,282.000 143.260 C 282.000 143.073,280.785 142.334,279.300 141.618 C 277.815 140.901,276.150 140.053,275.600 139.733 C 275.050 139.413,274.285 139.051,273.900 138.929 C 273.515 138.807,273.200 138.548,273.200 138.353 C 273.200 138.159,272.840 138.000,272.400 138.000 C 271.960 138.000,271.600 137.820,271.600 137.600 C 271.600 137.380,271.240 137.200,270.800 137.200 C 270.360 137.200,270.000 137.020,270.000 136.800 C 270.000 136.580,269.640 136.400,269.200 136.400 C 268.760 136.400,268.400 136.220,268.400 136.000 C 268.400 135.780,268.040 135.600,267.600 135.600 C 267.160 135.600,266.800 135.420,266.800 135.200 C 266.800 134.980,266.440 134.800,266.000 134.800 C 265.560 134.800,265.200 134.620,265.200 134.400 C 265.200 134.180,264.840 134.000,264.400 134.000 C 263.960 134.000,263.600 133.820,263.600 133.600 C 263.600 133.380,263.240 133.200,262.800 133.200 C 262.360 133.200,262.000 133.020,262.000 132.800 C 262.000 132.580,261.640 132.400,261.200 132.400 C 260.760 132.400,260.400 132.220,260.400 132.000 C 260.400 131.780,260.040 131.600,259.600 131.600 C 259.160 131.600,258.799 131.465,258.797 131.300 C 258.795 131.135,258.390 130.799,257.897 130.554 C 253.707 128.472,251.652 127.422,250.800 126.929 C 250.250 126.611,249.485 126.251,249.100 126.129 C 248.715 126.007,248.400 125.748,248.400 125.553 C 248.400 125.359,248.040 125.200,247.600 125.200 C 247.160 125.200,246.800 125.020,246.800 124.800 C 246.800 124.580,246.440 124.400,246.000 124.400 C 245.560 124.400,245.200 124.220,245.200 124.000 C 245.200 123.780,244.840 123.600,244.400 123.600 C 243.960 123.600,243.600 123.420,243.600 123.200 C 243.600 122.980,243.240 122.800,242.800 122.800 C 242.360 122.800,242.000 122.620,242.000 122.400 C 242.000 122.180,241.640 122.000,241.200 122.000 C 240.760 122.000,240.400 121.820,240.400 121.600 C 240.400 121.380,240.040 121.200,239.600 121.200 C 239.160 121.200,238.800 121.020,238.800 120.800 C 238.800 120.580,238.440 120.400,238.000 120.400 C 237.560 120.400,237.200 120.220,237.200 120.000 C 237.200 119.780,236.840 119.600,236.400 119.600 C 235.960 119.600,235.599 119.465,235.597 119.300 C 235.593 118.941,233.656 118.000,232.920 118.000 C 232.634 118.000,232.400 117.845,232.400 117.657 C 232.400 117.468,230.465 116.345,228.100 115.162 C 225.735 113.978,223.740 112.873,223.667 112.705 C 223.480 112.277,221.200 112.322,221.200 112.753 C 221.200 112.948,220.885 113.207,220.500 113.329 C 220.115 113.451,219.350 113.811,218.800 114.129 C 218.250 114.447,216.720 115.243,215.400 115.897 C 211.399 117.879,209.407 118.984,209.267 119.300 C 209.193 119.465,208.788 119.600,208.367 119.600 C 207.945 119.600,207.600 119.780,207.600 120.000 C 207.600 120.220,207.240 120.400,206.800 120.400 C 206.360 120.400,205.999 120.535,205.997 120.700 C 205.993 121.059,204.056 122.000,203.320 122.000 C 203.034 122.000,202.800 122.180,202.800 122.400 C 202.800 122.620,202.440 122.800,202.000 122.800 C 201.560 122.800,201.200 122.980,201.200 123.200 C 201.200 123.420,200.840 123.600,200.400 123.600 C 199.960 123.600,199.600 123.780,199.600 124.000 C 199.600 124.220,199.240 124.400,198.800 124.400 C 198.360 124.400,198.000 124.580,198.000 124.800 C 198.000 125.020,197.640 125.200,197.200 125.200 C 196.760 125.200,196.399 125.335,196.397 125.500 C 196.393 125.859,194.456 126.800,193.720 126.800 C 193.434 126.800,193.200 126.959,193.200 127.153 C 193.200 127.348,192.885 127.607,192.500 127.729 C 192.115 127.851,191.350 128.212,190.800 128.531 C 190.250 128.851,188.945 129.520,187.900 130.019 C 186.855 130.518,186.000 131.077,186.000 131.263 C 186.000 131.448,185.640 131.600,185.200 131.600 C 184.760 131.600,184.400 131.780,184.400 132.000 C 184.400 132.220,184.040 132.400,183.600 132.400 C 183.160 132.400,182.800 132.580,182.800 132.800 C 182.800 133.020,182.440 133.200,182.000 133.200 C 181.560 133.200,181.200 133.380,181.200 133.600 C 181.200 133.820,180.840 134.000,180.400 134.000 C 179.960 134.000,179.600 134.180,179.600 134.400 C 179.600 134.620,179.240 134.800,178.800 134.800 C 178.360 134.800,178.000 134.980,178.000 135.200 C 178.000 135.420,177.640 135.600,177.200 135.600 C 176.760 135.600,176.400 135.780,176.400 136.000 C 176.400 136.220,176.040 136.400,175.600 136.400 C 175.160 136.400,174.800 136.580,174.800 136.800 C 174.800 137.020,174.440 137.200,174.000 137.200 C 173.560 137.200,173.200 137.380,173.200 137.600 C 173.200 137.820,172.840 138.000,172.400 138.000 C 171.960 138.000,171.600 138.180,171.600 138.400 C 171.600 138.620,171.322 138.800,170.983 138.800 C 170.644 138.800,169.980 139.160,169.508 139.600 C 169.036 140.040,168.248 140.400,167.758 140.400 C 167.268 140.400,166.807 140.536,166.733 140.702 C 166.660 140.868,165.340 141.631,163.800 142.399 C 162.260 143.166,160.254 144.290,159.342 144.897 C 157.363 146.214,157.200 146.237,157.200 145.200 C 157.200 144.667,157.467 144.400,158.000 144.400 C 158.440 144.400,158.801 144.265,158.803 144.100 C 158.807 143.741,160.744 142.800,161.480 142.800 C 161.766 142.800,162.000 142.620,162.000 142.400 C 162.000 142.180,162.360 142.000,162.800 142.000 C 163.240 142.000,163.600 141.820,163.600 141.600 C 163.600 141.380,163.960 141.200,164.400 141.200 C 164.840 141.200,165.200 141.020,165.200 140.800 C 165.200 140.580,165.560 140.400,166.000 140.400 C 166.440 140.400,166.800 140.220,166.800 140.000 C 166.800 139.780,167.160 139.600,167.600 139.600 C 168.040 139.600,168.400 139.420,168.400 139.200 C 168.400 138.980,168.760 138.800,169.200 138.800 C 169.640 138.800,170.000 138.641,170.000 138.447 C 170.000 138.252,170.315 137.993,170.700 137.871 C 171.085 137.749,171.850 137.389,172.400 137.072 C 172.950 136.754,173.940 136.254,174.600 135.961 C 175.260 135.668,176.278 135.107,176.862 134.714 C 177.446 134.321,178.133 134.000,178.390 134.000 C 178.646 134.000,179.641 133.460,180.600 132.800 C 181.559 132.140,182.627 131.600,182.972 131.600 C 183.317 131.600,183.600 131.420,183.600 131.200 C 183.600 130.980,183.960 130.800,184.400 130.800 C 184.840 130.800,185.201 130.665,185.203 130.500 C 185.207 130.141,187.144 129.200,187.880 129.200 C 188.166 129.200,188.400 129.020,188.400 128.800 C 188.400 128.580,188.760 128.400,189.200 128.400 C 189.640 128.400,190.000 128.220,190.000 128.000 C 190.000 127.780,190.360 127.600,190.800 127.600 C 191.240 127.600,191.600 127.420,191.600 127.200 C 191.600 126.980,191.960 126.800,192.400 126.800 C 192.840 126.800,193.200 126.620,193.200 126.400 C 193.200 126.180,193.560 126.000,194.000 126.000 C 194.440 126.000,194.800 125.820,194.800 125.600 C 194.800 125.380,195.160 125.200,195.600 125.200 C 196.040 125.200,196.401 125.065,196.403 124.900 C 196.407 124.549,198.337 123.600,199.046 123.600 C 199.314 123.600,199.593 123.465,199.667 123.300 C 199.740 123.135,200.880 122.441,202.200 121.757 C 207.017 119.262,208.203 118.594,208.333 118.300 C 208.407 118.135,208.812 118.000,209.233 118.000 C 209.655 118.000,210.000 117.820,210.000 117.600 C 210.000 117.380,210.360 117.200,210.800 117.200 C 211.240 117.200,211.600 117.020,211.600 116.800 C 211.600 116.580,211.960 116.400,212.400 116.400 C 212.840 116.400,213.200 116.220,213.200 116.000 C 213.200 115.780,213.560 115.600,214.000 115.600 C 214.440 115.600,214.800 115.420,214.800 115.200 C 214.800 114.980,215.160 114.800,215.600 114.800 C 216.040 114.800,216.400 114.620,216.400 114.400 C 216.400 114.180,216.760 114.000,217.200 114.000 C 217.640 114.000,218.000 113.820,218.000 113.600 C 218.000 113.380,218.360 113.200,218.800 113.200 C 219.240 113.200,219.600 113.020,219.600 112.800 C 219.600 112.580,219.960 112.400,220.400 112.400 C 220.840 112.400,221.200 112.220,221.200 112.000 C 221.200 111.780,221.740 111.600,222.400 111.600 C 223.060 111.600,223.600 111.780,223.600 112.000 C 223.600 112.220,223.960 112.400,224.400 112.400 C 224.840 112.400,225.200 112.580,225.200 112.800 C 225.200 113.020,225.560 113.200,226.000 113.200 C 226.440 113.200,226.800 113.380,226.800 113.600 C 226.800 113.820,227.160 114.000,227.600 114.000 C 228.040 114.000,228.400 114.180,228.400 114.400 C 228.400 114.620,228.634 114.800,228.920 114.800 C 229.656 114.800,231.593 115.741,231.597 116.100 C 231.599 116.265,231.960 116.400,232.400 116.400 C 232.840 116.400,233.200 116.580,233.200 116.800 C 233.200 117.020,233.545 117.200,233.967 117.200 C 234.388 117.200,234.793 117.335,234.867 117.500 C 235.006 117.813,236.432 118.606,241.800 121.359 C 243.560 122.262,245.060 123.135,245.133 123.300 C 245.207 123.465,245.612 123.600,246.033 123.600 C 246.455 123.600,246.800 123.780,246.800 124.000 C 246.800 124.220,247.160 124.400,247.600 124.400 C 248.040 124.400,248.400 124.580,248.400 124.800 C 248.400 125.020,248.760 125.200,249.200 125.200 C 249.640 125.200,250.000 125.380,250.000 125.600 C 250.000 125.820,250.360 126.000,250.800 126.000 C 251.240 126.000,251.600 126.180,251.600 126.400 C 251.600 126.620,251.960 126.800,252.400 126.800 C 252.840 126.800,253.200 126.980,253.200 127.200 C 253.200 127.420,253.560 127.600,254.000 127.600 C 254.440 127.600,254.800 127.780,254.800 128.000 C 254.800 128.220,255.034 128.400,255.320 128.400 C 256.056 128.400,257.993 129.341,257.997 129.700 C 257.999 129.865,258.360 130.000,258.800 130.000 C 259.240 130.000,259.600 130.180,259.600 130.400 C 259.600 130.620,259.945 130.800,260.367 130.800 C 260.788 130.800,261.193 130.935,261.267 131.100 C 261.440 131.490,263.088 132.438,266.800 134.282 C 268.450 135.102,269.860 135.914,269.933 136.086 C 270.007 136.259,270.286 136.400,270.554 136.400 C 271.263 136.400,273.193 137.349,273.197 137.700 C 273.199 137.865,273.560 138.000,274.000 138.000 C 274.440 138.000,274.800 138.180,274.800 138.400 C 274.800 138.620,275.160 138.800,275.600 138.800 C 276.040 138.800,276.400 138.980,276.400 139.200 C 276.400 139.420,276.760 139.600,277.200 139.600 C 277.640 139.600,278.000 139.780,278.000 140.000 C 278.000 140.220,278.360 140.400,278.800 140.400 C 279.240 140.400,279.600 140.580,279.600 140.800 C 279.600 141.020,279.960 141.200,280.400 141.200 C 280.840 141.200,281.200 141.380,281.200 141.600 C 281.200 141.820,281.560 142.000,282.000 142.000 C 282.440 142.000,282.800 142.180,282.800 142.400 C 282.800 142.620,283.160 142.800,283.600 142.800 C 284.040 142.800,284.400 142.980,284.400 143.200 C 284.400 143.420,284.760 143.600,285.200 143.600 C 285.640 143.600,286.000 143.738,286.000 143.906 C 286.000 144.074,286.675 144.522,287.500 144.901 C 288.325 145.281,289.720 146.014,290.600 146.532 L 292.200 147.472 292.303 175.536 L 292.405 203.600 294.323 203.600 C 295.377 203.600,296.411 203.769,296.620 203.975 C 296.829 204.181,298.530 204.386,300.400 204.431 C 302.270 204.476,303.915 204.691,304.055 204.908 C 305.103 206.527,305.200 203.766,305.200 172.348 C 305.200 146.942,305.092 139.841,304.700 139.471 C 304.165 138.967,302.060 137.809,298.200 135.897 C 296.880 135.243,295.350 134.447,294.800 134.129 C 294.250 133.811,293.485 133.451,293.100 133.329 C 292.715 133.207,292.400 132.948,292.400 132.753 C 292.400 132.559,292.040 132.400,291.600 132.400 C 291.160 132.400,290.800 132.220,290.800 132.000 C 290.800 131.780,290.440 131.600,290.000 131.600 C 289.560 131.600,289.200 131.420,289.200 131.200 C 289.200 130.980,288.840 130.800,288.400 130.800 C 287.960 130.800,287.600 130.620,287.600 130.400 C 287.600 130.180,287.240 130.000,286.800 130.000 C 286.360 130.000,286.000 129.820,286.000 129.600 C 286.000 129.380,285.640 129.200,285.200 129.200 C 284.760 129.200,284.400 129.020,284.400 128.800 C 284.400 128.580,284.166 128.400,283.880 128.400 C 283.144 128.400,281.207 127.459,281.203 127.100 C 281.201 126.935,280.840 126.800,280.400 126.800 C 279.960 126.800,279.600 126.620,279.600 126.400 C 279.600 126.180,279.240 126.000,278.800 126.000 C 278.360 126.000,277.999 125.865,277.997 125.700 C 277.993 125.341,276.056 124.400,275.320 124.400 C 275.034 124.400,274.800 124.248,274.800 124.063 C 274.800 123.877,273.945 123.318,272.900 122.819 C 271.855 122.320,270.550 121.651,270.000 121.331 C 269.450 121.012,268.685 120.651,268.300 120.529 C 267.915 120.407,267.600 120.148,267.600 119.953 C 267.600 119.759,267.366 119.600,267.080 119.600 C 266.344 119.600,264.407 118.659,264.403 118.300 C 264.401 118.135,264.040 118.000,263.600 118.000 C 263.160 118.000,262.800 117.820,262.800 117.600 C 262.800 117.380,262.440 117.200,262.000 117.200 C 261.560 117.200,261.200 117.020,261.200 116.800 C 261.200 116.580,260.840 116.400,260.400 116.400 C 259.960 116.400,259.600 116.220,259.600 116.000 C 259.600 115.780,259.240 115.600,258.800 115.600 C 258.360 115.600,258.000 115.420,258.000 115.200 C 258.000 114.980,257.640 114.800,257.200 114.800 C 256.760 114.800,256.400 114.620,256.400 114.400 C 256.400 114.180,256.166 114.000,255.880 114.000 C 255.144 114.000,253.207 113.059,253.203 112.700 C 253.201 112.535,252.840 112.400,252.400 112.400 C 251.960 112.400,251.600 112.220,251.600 112.000 C 251.600 111.780,251.255 111.600,250.833 111.600 C 250.412 111.600,250.007 111.465,249.933 111.300 C 249.794 110.987,248.368 110.194,243.000 107.441 C 241.240 106.538,239.740 105.665,239.667 105.500 C 239.593 105.335,239.314 105.200,239.046 105.200 C 238.337 105.200,236.407 104.251,236.403 103.900 C 236.401 103.735,236.040 103.600,235.600 103.600 C 235.160 103.600,234.800 103.420,234.800 103.200 C 234.800 102.980,234.440 102.800,234.000 102.800 C 233.560 102.800,233.200 102.620,233.200 102.400 C 233.200 102.180,232.840 102.000,232.400 102.000 C 231.960 102.000,231.600 101.820,231.600 101.600 C 231.600 101.380,231.240 101.200,230.800 101.200 C 230.360 101.200,230.000 101.020,230.000 100.800 C 230.000 100.580,229.640 100.400,229.200 100.400 C 228.760 100.400,228.400 100.220,228.400 100.000 C 228.400 99.780,228.166 99.600,227.880 99.600 C 227.144 99.600,225.207 98.659,225.203 98.300 C 225.201 98.135,224.840 98.000,224.400 98.000 C 223.960 98.000,223.600 97.820,223.600 97.600 C 223.600 97.380,223.060 97.200,222.400 97.200 C 221.740 97.200,221.200 97.380,221.200 97.600 M112.400 139.671 C 111.630 140.118,110.940 140.645,110.867 140.842 C 110.793 141.039,110.514 141.200,110.246 141.200 C 109.537 141.200,107.607 142.149,107.603 142.500 C 107.601 142.665,107.240 142.800,106.800 142.800 C 106.360 142.800,106.000 142.980,106.000 143.200 C 106.000 143.420,105.640 143.600,105.200 143.600 C 104.760 143.600,104.399 143.735,104.397 143.900 C 104.393 144.259,102.456 145.200,101.720 145.200 C 101.434 145.200,101.200 145.380,101.200 145.600 C 101.200 145.820,100.840 146.000,100.400 146.000 C 99.960 146.000,99.600 146.180,99.600 146.400 C 99.600 146.620,99.240 146.800,98.800 146.800 C 98.360 146.800,98.000 146.980,98.000 147.200 C 98.000 147.420,97.640 147.600,97.200 147.600 C 96.760 147.600,96.400 147.780,96.400 148.000 C 96.400 148.220,96.040 148.400,95.600 148.400 C 95.160 148.400,94.800 148.580,94.800 148.800 C 94.800 149.020,94.440 149.200,94.000 149.200 C 93.560 149.200,93.200 149.359,93.200 149.553 C 93.200 149.748,92.885 150.007,92.500 150.129 C 92.115 150.251,91.350 150.613,90.800 150.933 C 90.250 151.253,88.540 152.118,87.000 152.855 C 85.460 153.591,83.454 154.690,82.542 155.297 C 81.630 155.904,80.595 156.400,80.242 156.400 C 79.889 156.400,79.600 156.580,79.600 156.800 C 79.600 157.020,79.240 157.200,78.800 157.200 C 78.360 157.200,77.999 157.335,77.997 157.500 C 77.993 157.859,76.056 158.800,75.320 158.800 C 75.034 158.800,74.800 158.980,74.800 159.200 C 74.800 159.420,74.440 159.600,74.000 159.600 C 73.560 159.600,73.200 159.780,73.200 160.000 C 73.200 160.220,72.840 160.400,72.400 160.400 C 71.960 160.400,71.600 160.580,71.600 160.800 C 71.600 161.020,71.240 161.200,70.800 161.200 C 70.360 161.200,70.000 161.380,70.000 161.600 C 70.000 161.820,69.640 162.000,69.200 162.000 C 68.760 162.000,68.400 162.180,68.400 162.400 C 68.400 162.620,68.122 162.800,67.783 162.800 C 67.444 162.800,66.780 163.160,66.308 163.600 C 65.836 164.040,65.033 164.400,64.525 164.400 C 64.016 164.400,63.600 164.538,63.600 164.706 C 63.600 164.874,62.880 165.323,62.000 165.704 L 60.400 166.398 60.400 187.799 L 60.400 209.200 61.600 209.200 C 62.260 209.200,62.800 209.020,62.800 208.800 C 62.800 208.580,63.083 208.400,63.429 208.400 C 65.187 208.400,65.200 208.256,65.200 188.800 C 65.200 169.344,65.213 169.200,66.971 169.200 C 67.317 169.200,67.600 169.020,67.600 168.800 C 67.600 168.580,67.960 168.400,68.400 168.400 C 68.840 168.400,69.201 168.265,69.203 168.100 C 69.207 167.741,71.144 166.800,71.880 166.800 C 72.166 166.800,72.400 166.620,72.400 166.400 C 72.400 166.180,72.760 166.000,73.200 166.000 C 73.640 166.000,74.000 165.820,74.000 165.600 C 74.000 165.380,74.360 165.200,74.800 165.200 C 75.240 165.200,75.600 165.020,75.600 164.800 C 75.600 164.580,75.960 164.400,76.400 164.400 C 76.840 164.400,77.200 164.220,77.200 164.000 C 77.200 163.780,77.560 163.600,78.000 163.600 C 78.440 163.600,78.800 163.420,78.800 163.200 C 78.800 162.980,79.160 162.800,79.600 162.800 C 80.040 162.800,80.400 162.641,80.400 162.447 C 80.400 162.252,80.715 161.993,81.100 161.871 C 81.485 161.749,82.250 161.389,82.800 161.071 C 83.350 160.753,84.880 159.957,86.200 159.303 C 90.201 157.321,92.193 156.216,92.333 155.900 C 92.407 155.735,92.812 155.600,93.233 155.600 C 93.655 155.600,94.000 155.420,94.000 155.200 C 94.000 154.980,94.360 154.800,94.800 154.800 C 95.240 154.800,95.600 154.620,95.600 154.400 C 95.600 154.180,95.960 154.000,96.400 154.000 C 96.840 154.000,97.201 153.865,97.203 153.700 C 97.207 153.341,99.144 152.400,99.880 152.400 C 100.166 152.400,100.400 152.220,100.400 152.000 C 100.400 151.780,100.760 151.600,101.200 151.600 C 101.640 151.600,102.000 151.420,102.000 151.200 C 102.000 150.980,102.360 150.800,102.800 150.800 C 103.240 150.800,103.600 150.620,103.600 150.400 C 103.600 150.180,103.960 150.000,104.400 150.000 C 104.840 150.000,105.200 149.820,105.200 149.600 C 105.200 149.380,105.560 149.200,106.000 149.200 C 106.440 149.200,106.800 149.020,106.800 148.800 C 106.800 148.580,107.160 148.400,107.600 148.400 C 108.040 148.400,108.400 148.241,108.400 148.047 C 108.400 147.852,108.715 147.593,109.100 147.471 C 109.485 147.349,110.340 146.941,111.000 146.564 C 112.968 145.440,113.552 145.200,114.315 145.200 C 115.213 145.200,117.193 146.093,117.197 146.500 C 117.199 146.665,117.560 146.800,118.000 146.800 C 118.440 146.800,118.800 146.980,118.800 147.200 C 118.800 147.420,119.145 147.600,119.567 147.600 C 119.988 147.600,120.393 147.735,120.467 147.900 C 120.640 148.290,122.288 149.238,126.000 151.082 C 127.650 151.902,129.060 152.714,129.133 152.886 C 129.207 153.059,129.486 153.200,129.754 153.200 C 130.463 153.200,132.393 154.149,132.397 154.500 C 132.399 154.665,132.760 154.800,133.200 154.800 C 133.640 154.800,134.000 154.980,134.000 155.200 C 134.000 155.420,134.360 155.600,134.800 155.600 C 135.240 155.600,135.600 155.780,135.600 156.000 C 135.600 156.220,135.960 156.400,136.400 156.400 C 136.840 156.400,137.200 156.580,137.200 156.800 C 137.200 157.020,137.560 157.200,138.000 157.200 C 138.440 157.200,138.800 157.380,138.800 157.600 C 138.800 157.820,139.034 158.000,139.320 158.000 C 140.056 158.000,141.993 158.941,141.997 159.300 C 141.999 159.465,142.360 159.600,142.800 159.600 C 143.240 159.600,143.600 159.780,143.600 160.000 C 143.600 160.220,143.883 160.400,144.228 160.400 C 144.573 160.400,145.608 160.901,146.528 161.512 C 147.448 162.124,148.740 162.865,149.400 163.159 C 150.060 163.453,151.050 163.954,151.600 164.272 C 152.150 164.589,152.915 164.949,153.300 165.071 C 153.685 165.193,154.000 165.452,154.000 165.647 C 154.000 165.841,154.234 166.000,154.520 166.000 C 155.256 166.000,157.193 166.941,157.197 167.300 C 157.199 167.465,157.560 167.600,158.000 167.600 C 158.440 167.600,158.800 167.780,158.800 168.000 C 158.800 168.220,159.160 168.400,159.600 168.400 C 160.040 168.400,160.400 168.580,160.400 168.800 C 160.400 169.020,160.683 169.200,161.029 169.200 C 162.715 169.200,162.800 169.803,162.800 181.771 L 162.800 193.200 165.200 193.200 L 167.600 193.200 167.600 179.600 C 167.600 166.267,167.584 166.000,166.800 166.000 C 166.360 166.000,166.000 165.820,166.000 165.600 C 166.000 165.380,165.640 165.200,165.200 165.200 C 164.760 165.200,164.400 165.020,164.400 164.800 C 164.400 164.580,164.040 164.400,163.600 164.400 C 163.160 164.400,162.800 164.220,162.800 164.000 C 162.800 163.780,162.440 163.600,162.000 163.600 C 161.560 163.600,161.200 163.420,161.200 163.200 C 161.200 162.980,160.966 162.800,160.680 162.800 C 159.944 162.800,158.007 161.859,158.003 161.500 C 158.001 161.335,157.655 161.200,157.233 161.200 C 156.812 161.200,156.407 161.065,156.333 160.900 C 156.193 160.584,154.201 159.479,150.200 157.497 C 148.880 156.843,147.350 156.047,146.800 155.729 C 146.250 155.411,145.485 155.051,145.100 154.929 C 144.715 154.807,144.400 154.548,144.400 154.353 C 144.400 154.159,144.040 154.000,143.600 154.000 C 143.160 154.000,142.800 153.820,142.800 153.600 C 142.800 153.380,142.440 153.200,142.000 153.200 C 141.560 153.200,141.200 153.020,141.200 152.800 C 141.200 152.580,140.840 152.400,140.400 152.400 C 139.960 152.400,139.600 152.220,139.600 152.000 C 139.600 151.780,139.240 151.600,138.800 151.600 C 138.360 151.600,138.000 151.420,138.000 151.200 C 138.000 150.980,137.766 150.800,137.480 150.800 C 136.744 150.800,134.807 149.859,134.803 149.500 C 134.801 149.335,134.440 149.200,134.000 149.200 C 133.560 149.200,133.200 149.020,133.200 148.800 C 133.200 148.580,132.911 148.400,132.558 148.400 C 132.205 148.400,131.170 147.905,130.258 147.300 C 129.346 146.695,128.060 145.954,127.400 145.653 C 126.740 145.352,125.750 144.846,125.200 144.528 C 124.650 144.211,123.885 143.851,123.500 143.729 C 123.115 143.607,122.800 143.348,122.800 143.153 C 122.800 142.959,122.440 142.800,122.000 142.800 C 121.560 142.800,121.200 142.620,121.200 142.400 C 121.200 142.180,120.840 142.000,120.400 142.000 C 119.960 142.000,119.600 141.820,119.600 141.600 C 119.600 141.380,119.240 141.200,118.800 141.200 C 118.360 141.200,118.000 141.020,118.000 140.800 C 118.000 140.580,117.640 140.400,117.200 140.400 C 116.760 140.400,116.400 140.220,116.400 140.000 C 116.400 139.780,116.051 139.600,115.624 139.600 C 115.197 139.600,114.736 139.420,114.600 139.200 C 114.271 138.667,114.043 138.716,112.400 139.671 M198.800 167.207 L 198.800 177.214 208.700 177.107 L 218.600 177.000 218.707 167.100 L 218.814 157.200 208.807 157.200 L 198.800 157.200 198.800 167.207 M226.093 167.100 L 226.200 177.000 236.000 177.000 L 245.800 177.000 245.907 167.100 L 246.014 157.200 236.000 157.200 L 225.986 157.200 226.093 167.100 M96.400 176.800 L 96.400 184.400 104.000 184.400 L 111.600 184.400 111.600 176.800 L 111.600 169.200 104.000 169.200 L 96.400 169.200 96.400 176.800 M116.667 169.467 C 116.520 169.613,116.400 173.033,116.400 177.067 L 116.400 184.400 124.000 184.400 L 131.600 184.400 131.600 176.800 L 131.600 169.200 124.267 169.200 C 120.233 169.200,116.813 169.320,116.667 169.467 M198.889 189.100 L 199.000 194.600 205.700 194.710 C 209.714 194.775,212.400 194.976,212.400 195.210 C 212.400 195.431,213.786 195.600,215.600 195.600 L 218.800 195.600 218.800 189.600 L 218.800 183.600 208.789 183.600 L 198.777 183.600 198.889 189.100 M226.000 190.000 L 226.000 196.400 229.776 196.400 C 231.863 196.400,233.663 196.579,233.800 196.800 C 233.939 197.025,235.863 197.200,238.200 197.200 C 240.537 197.200,242.461 197.375,242.600 197.600 C 242.736 197.820,243.557 198.000,244.424 198.000 L 246.000 198.000 246.000 190.800 L 246.000 183.600 236.000 183.600 L 226.000 183.600 226.000 190.000 M96.835 188.957 C 96.529 189.326,96.411 191.050,96.486 194.057 L 96.600 198.600 97.749 198.731 C 98.381 198.803,99.092 198.668,99.329 198.431 C 99.566 198.194,100.703 198.000,101.856 198.000 C 103.009 198.000,104.064 197.820,104.200 197.600 C 104.336 197.380,105.596 197.200,107.000 197.200 C 108.404 197.200,109.664 197.020,109.800 196.800 C 109.936 196.580,110.397 196.400,110.824 196.400 C 111.540 196.400,111.600 196.093,111.600 192.400 L 111.600 188.400 104.449 188.400 C 98.824 188.400,97.199 188.519,96.835 188.957 M116.400 192.000 L 116.400 195.600 120.000 195.600 C 122.133 195.600,123.600 195.437,123.600 195.200 C 123.600 194.964,125.040 194.800,127.120 194.800 C 131.414 194.800,131.600 194.648,131.600 191.120 L 131.600 188.400 124.000 188.400 L 116.400 188.400 116.400 192.000 M209.786 222.372 C 209.574 222.583,205.620 222.849,201.000 222.963 C 196.380 223.077,190.530 223.349,188.000 223.567 C 185.470 223.785,181.150 224.109,178.400 224.287 C 175.650 224.465,173.209 224.733,172.976 224.882 C 172.743 225.031,171.341 225.192,169.861 225.240 C 168.380 225.288,167.075 225.478,166.961 225.664 C 166.846 225.849,165.604 226.000,164.200 226.000 C 162.796 226.000,161.536 226.180,161.400 226.400 C 161.264 226.620,159.914 226.800,158.400 226.800 C 156.886 226.800,155.536 226.980,155.400 227.200 C 155.264 227.420,154.184 227.600,153.000 227.600 C 151.816 227.600,150.736 227.780,150.600 228.000 C 150.464 228.220,149.474 228.400,148.400 228.400 C 147.326 228.400,146.336 228.580,146.200 228.800 C 146.064 229.020,145.078 229.200,144.010 229.200 C 142.941 229.200,142.007 229.370,141.933 229.578 C 141.860 229.786,140.845 229.998,139.679 230.050 C 138.512 230.102,137.467 230.292,137.355 230.472 C 137.244 230.653,136.569 230.800,135.856 230.800 C 135.143 230.800,134.389 230.967,134.180 231.171 C 133.971 231.375,133.260 231.616,132.600 231.708 C 131.940 231.799,131.130 231.986,130.800 232.124 C 130.470 232.262,129.750 232.431,129.200 232.498 C 128.650 232.565,128.000 232.746,127.755 232.900 C 127.511 233.053,126.732 233.223,126.025 233.277 C 125.318 233.331,124.652 233.515,124.546 233.687 C 124.440 233.859,123.823 234.000,123.176 234.000 C 122.529 234.000,122.000 234.180,122.000 234.400 C 122.000 234.620,121.471 234.800,120.824 234.800 C 120.177 234.800,119.536 234.980,119.400 235.200 C 119.264 235.420,118.634 235.600,118.000 235.600 C 117.366 235.600,116.736 235.780,116.600 236.000 C 116.464 236.220,115.924 236.400,115.400 236.400 C 114.876 236.400,114.336 236.580,114.200 236.800 C 114.064 237.020,113.601 237.200,113.171 237.200 C 112.741 237.200,112.032 237.380,111.595 237.600 C 111.158 237.820,110.442 238.180,110.005 238.400 C 109.568 238.620,108.848 238.800,108.405 238.800 C 107.962 238.800,107.600 238.980,107.600 239.200 C 107.600 239.420,107.161 239.600,106.624 239.600 C 106.087 239.600,105.536 239.780,105.400 240.000 C 105.264 240.220,104.803 240.400,104.376 240.400 C 103.949 240.400,103.600 240.580,103.600 240.800 C 103.600 241.020,103.161 241.200,102.624 241.200 C 102.087 241.200,101.536 241.380,101.400 241.600 C 101.264 241.820,100.803 242.000,100.376 242.000 C 99.949 242.000,99.600 242.180,99.600 242.400 C 99.600 242.620,99.240 242.800,98.800 242.800 C 98.360 242.800,98.000 242.980,98.000 243.200 C 98.000 243.420,97.640 243.600,97.200 243.600 C 96.760 243.600,96.400 243.780,96.400 244.000 C 96.400 244.220,96.040 244.400,95.600 244.400 C 95.160 244.400,94.800 244.580,94.800 244.800 C 94.800 245.020,94.485 245.204,94.100 245.209 C 93.715 245.214,92.950 245.570,92.400 246.000 C 91.850 246.430,91.085 246.786,90.700 246.791 C 90.315 246.796,90.000 246.980,90.000 247.200 C 90.000 247.420,89.722 247.600,89.383 247.600 C 89.044 247.600,88.406 247.936,87.966 248.346 C 87.525 248.757,86.363 249.505,85.382 250.009 C 84.402 250.513,83.600 251.077,83.600 251.263 C 83.600 251.448,83.375 251.600,83.100 251.600 C 81.927 251.602,76.880 257.040,77.488 257.648 C 77.822 257.982,78.246 257.879,79.131 257.249 C 79.787 256.782,80.701 256.400,81.162 256.400 C 81.623 256.400,82.000 256.220,82.000 256.000 C 82.000 255.780,82.343 255.600,82.762 255.600 C 83.421 255.600,84.589 255.114,87.695 253.550 C 88.077 253.357,88.752 253.200,89.195 253.200 C 89.638 253.200,90.000 253.020,90.000 252.800 C 90.000 252.580,90.439 252.400,90.976 252.400 C 91.513 252.400,92.064 252.220,92.200 252.000 C 92.336 251.780,92.797 251.600,93.224 251.600 C 93.651 251.600,94.000 251.420,94.000 251.200 C 94.000 250.980,94.540 250.800,95.200 250.800 C 95.860 250.800,96.400 250.620,96.400 250.400 C 96.400 250.180,96.940 250.000,97.600 250.000 C 98.260 250.000,98.800 249.820,98.800 249.600 C 98.800 249.380,99.340 249.200,100.000 249.200 C 100.660 249.200,101.200 249.020,101.200 248.800 C 101.200 248.580,101.549 248.400,101.976 248.400 C 102.403 248.400,102.864 248.220,103.000 248.000 C 103.136 247.780,103.867 247.600,104.624 247.600 C 105.381 247.600,106.000 247.420,106.000 247.200 C 106.000 246.980,106.542 246.800,107.205 246.800 C 107.868 246.800,108.813 246.592,109.305 246.338 C 111.226 245.344,111.616 245.200,112.371 245.200 C 112.801 245.200,113.264 245.020,113.400 244.800 C 113.536 244.580,114.447 244.400,115.424 244.400 C 116.401 244.400,117.200 244.220,117.200 244.000 C 117.200 243.780,117.920 243.600,118.800 243.600 C 119.680 243.600,120.400 243.420,120.400 243.200 C 120.400 242.980,121.120 242.800,122.000 242.800 C 122.880 242.800,123.600 242.620,123.600 242.400 C 123.600 242.180,124.320 242.000,125.200 242.000 C 126.080 242.000,126.800 241.820,126.800 241.600 C 126.800 241.380,127.505 241.200,128.367 241.200 C 129.228 241.200,129.993 241.036,130.067 240.836 C 130.140 240.635,130.920 240.422,131.800 240.361 C 132.680 240.301,133.580 240.126,133.800 239.973 C 134.217 239.683,136.128 239.319,139.200 238.943 C 140.190 238.822,141.171 238.560,141.380 238.361 C 141.589 238.163,142.534 238.000,143.480 238.000 C 144.426 238.000,145.200 237.820,145.200 237.600 C 145.200 237.380,145.999 237.200,146.976 237.200 C 147.953 237.200,148.864 237.020,149.000 236.800 C 149.136 236.580,150.216 236.400,151.400 236.400 C 152.584 236.400,153.664 236.220,153.800 236.000 C 153.936 235.780,155.016 235.600,156.200 235.600 C 157.384 235.600,158.464 235.420,158.600 235.200 C 158.736 234.980,159.917 234.800,161.224 234.800 C 162.541 234.800,163.600 234.622,163.600 234.400 C 163.600 234.178,164.659 234.000,165.976 234.000 C 167.283 234.000,168.464 233.820,168.600 233.600 C 168.736 233.380,170.266 233.200,172.000 233.200 C 173.734 233.200,175.264 233.020,175.400 232.800 C 175.536 232.580,177.156 232.400,179.000 232.400 C 180.844 232.400,182.464 232.220,182.600 232.000 C 182.736 231.780,184.266 231.600,186.000 231.600 C 187.734 231.600,189.264 231.420,189.400 231.200 C 189.538 230.977,191.396 230.800,193.600 230.800 C 195.804 230.800,197.662 230.623,197.800 230.400 C 197.938 230.177,199.796 230.000,202.000 230.000 C 204.204 230.000,206.062 229.823,206.200 229.600 C 206.345 229.366,208.663 229.200,211.800 229.200 C 214.937 229.200,217.255 229.034,217.400 228.800 C 217.548 228.561,220.184 228.400,223.964 228.400 C 227.438 228.400,230.802 228.223,231.440 228.008 C 232.078 227.792,238.450 227.532,245.600 227.430 C 252.750 227.329,259.905 227.190,261.499 227.123 C 263.093 227.055,264.398 227.107,264.399 227.239 C 264.400 227.370,273.175 227.510,283.900 227.550 C 294.625 227.590,303.940 227.785,304.600 227.984 C 306.560 228.572,310.600 228.314,310.600 227.600 C 310.600 227.262,310.163 226.941,309.600 226.866 C 309.050 226.793,308.429 226.568,308.220 226.366 C 308.011 226.165,305.997 226.000,303.744 226.000 C 301.444 226.000,299.539 225.825,299.400 225.600 C 299.259 225.371,297.204 225.200,294.600 225.200 C 291.996 225.200,289.941 225.029,289.800 224.800 C 289.655 224.565,287.329 224.400,284.176 224.400 C 281.219 224.400,278.800 224.238,278.800 224.039 C 278.800 223.841,276.244 223.653,273.120 223.622 C 269.995 223.590,267.239 223.399,266.995 223.196 C 266.751 222.994,262.827 222.808,258.276 222.784 C 253.724 222.760,250.000 222.580,250.000 222.384 C 250.000 221.888,210.284 221.877,209.786 222.372 " stroke="none" fill="#2484c4" fill-rule="evenodd"></path><path id="path2" d="M157.800 272.000 C 157.664 272.220,157.224 272.400,156.822 272.400 C 156.420 272.400,155.589 272.661,154.974 272.980 C 154.360 273.298,153.682 273.450,153.467 273.318 C 153.250 273.184,153.204 273.282,153.362 273.538 C 153.526 273.804,153.408 274.000,153.086 274.000 C 152.777 274.000,152.198 274.360,151.800 274.800 C 151.402 275.240,150.911 275.600,150.709 275.600 C 150.508 275.600,150.066 275.877,149.727 276.216 C 148.850 277.093,145.894 282.907,146.498 282.566 C 146.900 282.339,146.900 282.390,146.500 282.821 C 145.882 283.487,145.790 291.600,146.400 291.600 C 146.620 291.600,146.800 292.140,146.800 292.800 C 146.800 293.460,146.950 294.000,147.132 294.000 C 147.315 294.000,147.711 294.495,148.013 295.100 C 149.399 297.881,154.867 302.000,157.172 302.000 C 157.601 302.000,158.054 302.164,158.179 302.365 C 158.303 302.566,160.022 302.730,162.000 302.730 C 163.978 302.730,165.697 302.566,165.821 302.365 C 165.946 302.164,166.577 302.000,167.224 302.000 C 167.871 302.000,168.400 301.820,168.400 301.600 C 168.400 301.380,168.715 301.196,169.100 301.191 C 169.485 301.186,170.250 300.830,170.800 300.400 C 171.350 299.970,172.000 299.614,172.245 299.609 C 173.627 299.581,175.767 295.600,174.400 295.600 C 174.180 295.600,174.000 295.335,174.000 295.012 C 174.000 294.689,173.460 294.025,172.800 293.537 C 172.140 293.049,171.600 292.413,171.600 292.125 C 171.600 291.552,168.570 291.357,168.333 291.914 C 168.094 292.480,165.692 294.000,165.038 294.000 C 164.687 294.000,164.400 294.180,164.400 294.400 C 164.400 294.620,163.601 294.800,162.624 294.800 C 161.647 294.800,160.736 294.620,160.600 294.400 C 160.464 294.180,160.094 294.000,159.777 294.000 C 159.461 294.000,158.526 293.345,157.701 292.544 C 156.875 291.743,156.467 291.240,156.793 291.425 C 157.119 291.610,156.984 291.251,156.493 290.627 C 155.256 289.054,155.199 284.581,156.400 283.292 C 156.840 282.820,157.200 282.156,157.200 281.817 C 157.200 281.478,157.442 281.200,157.738 281.200 C 158.034 281.200,158.602 280.840,159.000 280.400 C 159.398 279.960,160.200 279.600,160.782 279.600 C 161.364 279.600,162.056 279.384,162.320 279.120 C 162.693 278.747,162.800 278.747,162.800 279.120 C 162.800 279.401,163.374 279.600,164.184 279.600 C 165.260 279.600,165.931 279.956,167.200 281.200 C 169.382 283.339,170.109 283.252,172.668 280.546 C 175.504 277.547,175.360 275.640,172.204 274.402 C 171.432 274.099,170.800 273.704,170.800 273.525 C 170.800 273.346,170.451 273.200,170.024 273.200 C 169.597 273.200,169.136 273.020,169.000 272.800 C 168.864 272.580,168.324 272.400,167.800 272.400 C 167.276 272.400,166.736 272.220,166.600 272.000 C 166.461 271.775,164.537 271.600,162.200 271.600 C 159.863 271.600,157.939 271.775,157.800 272.000 M179.067 271.867 C 178.920 272.013,178.800 278.853,178.800 287.067 L 178.800 302.000 191.200 302.000 L 203.600 302.000 203.600 298.400 L 203.600 294.800 196.000 294.800 L 188.400 294.800 188.400 292.810 L 188.400 290.819 195.100 290.710 L 201.800 290.600 201.916 287.100 L 202.031 283.600 195.216 283.600 L 188.400 283.600 188.400 281.200 L 188.400 278.800 196.000 278.800 L 203.600 278.800 203.600 275.200 L 203.600 271.600 191.467 271.600 C 184.793 271.600,179.213 271.720,179.067 271.867 M209.467 271.867 C 209.320 272.013,209.200 278.853,209.200 287.067 L 209.200 302.000 220.000 302.000 L 230.800 302.000 230.800 298.400 L 230.800 294.800 224.400 294.800 L 218.000 294.800 218.000 283.200 L 218.000 271.600 213.867 271.600 C 211.593 271.600,209.613 271.720,209.467 271.867 M234.307 271.826 C 233.817 272.316,233.941 300.847,234.436 301.443 C 234.779 301.857,236.019 302.000,239.254 302.000 L 243.610 302.000 243.505 286.900 L 243.400 271.800 238.979 271.688 C 236.547 271.626,234.445 271.688,234.307 271.826 M250.267 271.867 C 250.120 272.013,250.000 278.853,250.000 287.067 L 250.000 302.000 254.400 302.000 L 258.800 302.000 258.800 294.525 L 258.800 287.049 259.600 287.908 C 260.040 288.380,260.401 288.909,260.402 289.083 C 260.403 289.257,260.943 289.975,261.602 290.678 C 262.261 291.381,262.800 292.051,262.800 292.167 C 262.800 292.282,264.442 294.548,266.450 297.201 L 270.100 302.026 274.350 301.913 L 278.600 301.800 278.705 287.247 C 278.829 270.119,279.252 271.532,274.040 271.686 L 270.200 271.800 270.000 279.687 L 269.800 287.575 266.758 283.487 C 265.085 281.239,263.465 278.976,263.158 278.457 C 262.851 277.939,262.105 276.975,261.500 276.315 C 260.895 275.655,260.400 274.977,260.400 274.808 C 260.400 274.639,259.802 273.848,259.072 273.050 L 257.743 271.600 254.138 271.600 C 252.156 271.600,250.413 271.720,250.267 271.867 M293.694 273.100 C 293.312 273.925,292.865 274.660,292.700 274.733 C 292.535 274.807,292.400 275.184,292.400 275.572 C 292.400 275.960,292.150 276.800,291.844 277.439 C 291.538 278.077,290.979 279.320,290.602 280.200 C 289.566 282.619,288.355 285.317,287.956 286.095 C 287.760 286.477,287.596 287.017,287.591 287.295 C 287.586 287.573,287.230 288.250,286.800 288.800 C 286.370 289.350,286.014 290.194,286.009 290.676 C 286.004 291.158,285.820 291.664,285.600 291.800 C 285.380 291.936,285.196 292.352,285.191 292.724 C 285.186 293.096,284.830 293.850,284.400 294.400 C 283.970 294.950,283.614 295.679,283.609 296.020 C 283.597 296.845,282.679 298.793,282.300 298.797 C 282.135 298.799,282.000 299.124,282.000 299.520 C 282.000 299.916,281.784 300.456,281.520 300.720 C 280.529 301.711,281.826 302.028,286.391 301.914 C 289.932 301.825,290.979 301.670,291.211 301.200 C 291.620 300.371,292.283 298.740,292.551 297.900 C 292.800 297.121,304.400 296.796,304.400 297.569 C 304.400 297.772,304.805 298.851,305.300 299.968 L 306.200 301.999 310.900 301.999 L 315.600 302.000 315.600 301.024 C 315.600 300.487,315.420 299.936,315.200 299.800 C 314.980 299.664,314.800 299.124,314.800 298.600 C 314.800 298.076,314.620 297.536,314.400 297.400 C 314.180 297.264,314.000 296.803,314.000 296.376 C 314.000 295.949,313.820 295.600,313.600 295.600 C 313.380 295.600,313.200 295.418,313.200 295.196 C 313.200 294.806,311.924 291.737,311.167 290.305 C 310.965 289.923,310.796 289.293,310.791 288.905 C 310.786 288.517,310.430 287.750,310.000 287.200 C 309.570 286.650,309.214 285.896,309.209 285.524 C 309.204 285.152,309.020 284.736,308.800 284.600 C 308.580 284.464,308.400 283.924,308.400 283.400 C 308.400 282.876,308.220 282.336,308.000 282.200 C 307.780 282.064,307.600 281.603,307.600 281.176 C 307.600 280.749,307.420 280.400,307.200 280.400 C 306.980 280.400,306.800 280.218,306.800 279.996 C 306.800 279.606,305.524 276.537,304.767 275.105 C 304.565 274.723,304.400 274.076,304.400 273.667 C 304.400 272.032,303.201 271.600,298.662 271.600 L 294.387 271.600 293.694 273.100 M299.283 284.400 C 299.516 284.950,299.841 285.760,300.004 286.200 C 300.167 286.640,300.503 287.503,300.750 288.119 C 301.468 289.904,301.348 290.000,298.409 290.000 L 295.617 290.000 296.065 288.900 C 296.312 288.295,296.822 287.080,297.199 286.200 C 297.576 285.320,298.023 284.060,298.192 283.400 C 298.379 282.669,298.569 282.435,298.679 282.800 C 298.778 283.130,299.049 283.850,299.283 284.400 " stroke="none" fill="#0474c4" fill-rule="evenodd"></path><path id="path3" d="M142.562 199.998 C 142.358 200.202,138.906 200.391,134.892 200.418 C 130.578 200.446,127.686 200.616,127.820 200.833 C 127.953 201.047,126.285 201.200,123.824 201.200 C 121.275 201.200,119.600 201.359,119.600 201.600 C 119.600 201.838,118.075 202.000,115.824 202.000 C 113.737 202.000,111.937 202.179,111.800 202.400 C 111.664 202.620,110.483 202.800,109.176 202.800 C 107.859 202.800,106.800 202.978,106.800 203.200 C 106.800 203.420,105.821 203.600,104.624 203.600 C 103.427 203.600,102.336 203.780,102.200 204.000 C 102.064 204.220,100.984 204.400,99.800 204.400 C 98.616 204.400,97.536 204.580,97.400 204.800 C 97.264 205.020,96.364 205.200,95.400 205.200 C 94.436 205.200,93.536 205.380,93.400 205.600 C 93.264 205.820,92.443 206.000,91.576 206.000 C 90.709 206.000,90.000 206.180,90.000 206.400 C 90.000 206.620,89.201 206.800,88.224 206.800 C 87.247 206.800,86.336 206.980,86.200 207.200 C 86.064 207.420,85.243 207.600,84.376 207.600 C 83.509 207.600,82.800 207.780,82.800 208.000 C 82.800 208.220,82.080 208.400,81.200 208.400 C 80.320 208.400,79.600 208.580,79.600 208.800 C 79.600 209.020,79.161 209.200,78.624 209.200 C 78.087 209.200,77.536 209.380,77.400 209.600 C 77.264 209.820,76.623 210.000,75.976 210.000 C 75.329 210.000,74.800 210.180,74.800 210.400 C 74.800 210.620,74.260 210.800,73.600 210.800 C 72.940 210.800,72.400 210.980,72.400 211.200 C 72.400 211.420,71.875 211.600,71.233 211.600 C 70.592 211.600,70.007 211.778,69.933 211.997 C 69.860 212.215,69.318 212.433,68.729 212.481 C 68.140 212.530,67.745 212.712,67.852 212.885 C 67.960 213.058,67.587 213.200,67.024 213.200 C 66.461 213.200,66.000 213.380,66.000 213.600 C 66.000 213.820,65.655 214.000,65.233 214.000 C 64.812 214.000,64.407 214.178,64.333 214.397 C 64.260 214.615,63.718 214.833,63.129 214.881 C 62.540 214.930,62.145 215.112,62.252 215.285 C 62.360 215.458,62.087 215.600,61.647 215.600 C 61.207 215.600,60.736 215.780,60.600 216.000 C 60.464 216.220,60.003 216.400,59.576 216.400 C 59.149 216.400,58.800 216.580,58.800 216.800 C 58.800 217.020,58.440 217.200,58.000 217.200 C 57.560 217.200,57.200 217.380,57.200 217.600 C 57.200 217.820,56.964 218.000,56.675 218.000 C 56.387 218.000,55.764 218.360,55.292 218.800 C 54.820 219.240,54.156 219.600,53.817 219.600 C 53.478 219.600,53.200 219.780,53.200 220.000 C 53.200 220.220,52.964 220.400,52.675 220.400 C 52.387 220.400,51.764 220.760,51.292 221.200 C 50.820 221.640,50.232 222.000,49.985 222.000 C 49.739 222.000,48.846 222.720,48.000 223.600 C 47.154 224.480,46.282 225.200,46.060 225.200 C 45.454 225.200,38.800 231.886,38.800 232.495 C 38.800 232.785,38.440 233.283,38.000 233.600 C 37.560 233.917,37.200 234.425,37.200 234.728 C 37.200 235.031,36.660 235.783,36.000 236.400 C 35.340 237.017,34.800 237.809,34.800 238.160 C 34.800 238.512,34.620 238.800,34.400 238.800 C 34.180 238.800,34.000 239.160,34.000 239.600 C 34.000 240.040,33.820 240.400,33.600 240.400 C 33.380 240.400,33.200 240.760,33.200 241.200 C 33.200 241.640,33.020 242.000,32.800 242.000 C 32.580 242.000,32.400 242.360,32.400 242.800 C 32.400 243.240,32.220 243.600,32.000 243.600 C 31.780 243.600,31.600 244.320,31.600 245.200 C 31.600 246.080,31.420 246.800,31.200 246.800 C 30.980 246.800,30.800 247.700,30.800 248.800 C 30.800 249.900,30.620 250.800,30.400 250.800 C 30.145 250.800,30.000 254.000,30.000 259.600 C 30.000 265.200,30.145 268.400,30.400 268.400 C 30.620 268.400,30.800 269.379,30.800 270.576 C 30.800 271.773,30.980 272.864,31.200 273.000 C 31.420 273.136,31.600 273.777,31.600 274.424 C 31.600 275.071,31.780 275.600,32.000 275.600 C 32.220 275.600,32.400 276.140,32.400 276.800 C 32.400 277.460,32.580 278.000,32.800 278.000 C 33.020 278.000,33.200 278.540,33.200 279.200 C 33.200 279.860,33.380 280.400,33.600 280.400 C 33.820 280.400,34.000 280.940,34.000 281.600 C 34.000 282.260,34.180 282.800,34.400 282.800 C 34.620 282.800,34.800 283.160,34.800 283.600 C 34.800 284.040,34.980 284.400,35.200 284.400 C 35.420 284.400,35.600 284.755,35.600 285.188 C 35.600 285.621,35.960 286.617,36.400 287.400 C 36.840 288.183,37.200 289.089,37.200 289.412 C 37.200 289.735,37.336 290.000,37.502 290.000 C 37.865 290.000,39.021 292.460,38.879 292.930 C 38.825 293.111,38.965 293.145,39.190 293.006 C 39.416 292.867,39.600 293.033,39.600 293.376 C 39.600 293.719,39.780 294.000,40.000 294.000 C 40.220 294.000,40.400 294.360,40.400 294.800 C 40.400 295.240,40.580 295.600,40.800 295.600 C 41.020 295.600,41.200 295.883,41.200 296.229 C 41.200 296.574,41.472 297.129,41.804 297.461 C 42.136 297.793,42.288 298.258,42.142 298.494 C 41.985 298.749,42.064 298.807,42.338 298.638 C 42.612 298.469,42.800 298.607,42.800 298.976 C 42.800 299.319,42.980 299.600,43.200 299.600 C 43.420 299.600,43.600 299.843,43.600 300.141 C 43.600 300.438,44.140 301.246,44.800 301.937 C 45.460 302.628,46.000 303.464,46.000 303.796 C 46.000 304.200,46.397 304.400,47.200 304.400 C 48.417 304.400,49.088 302.296,47.987 301.929 C 47.412 301.737,47.402 285.466,47.977 285.274 C 48.210 285.197,48.400 284.248,48.400 283.167 C 48.400 282.085,48.580 281.200,48.800 281.200 C 49.020 281.200,49.200 280.671,49.200 280.024 C 49.200 279.377,49.380 278.736,49.600 278.600 C 49.820 278.464,50.000 277.913,50.000 277.376 C 50.000 276.839,50.180 276.400,50.400 276.400 C 50.620 276.400,50.800 275.860,50.800 275.200 C 50.800 274.540,50.980 274.000,51.200 274.000 C 51.420 274.000,51.600 273.722,51.600 273.383 C 51.600 273.044,51.960 272.380,52.400 271.908 C 52.840 271.436,53.200 270.813,53.200 270.525 C 53.200 270.236,53.380 270.000,53.600 270.000 C 53.820 270.000,54.000 269.640,54.000 269.200 C 54.000 268.760,54.180 268.400,54.400 268.400 C 54.620 268.400,54.800 268.040,54.800 267.600 C 54.800 267.160,54.950 266.800,55.132 266.800 C 55.315 266.800,55.720 266.305,56.032 265.700 C 56.345 265.095,57.095 264.123,57.700 263.540 C 58.305 262.956,58.800 262.271,58.800 262.016 C 58.800 261.761,59.008 261.681,59.262 261.838 C 59.538 262.009,59.615 261.949,59.454 261.687 C 59.181 261.246,65.247 254.800,65.935 254.800 C 66.138 254.800,67.005 254.125,67.862 253.300 C 68.720 252.475,69.911 251.545,70.511 251.232 C 71.110 250.920,71.600 250.515,71.600 250.332 C 71.600 250.150,71.894 250.000,72.253 250.000 C 72.612 250.000,73.197 249.684,73.553 249.297 C 73.909 248.911,74.695 248.340,75.300 248.030 C 75.905 247.719,76.400 247.315,76.400 247.132 C 76.400 246.950,76.760 246.800,77.200 246.800 C 77.640 246.800,78.000 246.620,78.000 246.400 C 78.000 246.180,78.236 246.000,78.525 246.000 C 78.813 246.000,79.436 245.640,79.908 245.200 C 80.380 244.760,81.044 244.400,81.383 244.400 C 81.722 244.400,82.000 244.220,82.000 244.000 C 82.000 243.780,82.360 243.600,82.800 243.600 C 83.240 243.600,83.600 243.420,83.600 243.200 C 83.600 242.980,83.960 242.800,84.400 242.800 C 84.840 242.800,85.200 242.620,85.200 242.400 C 85.200 242.180,85.560 242.000,86.000 242.000 C 86.440 242.000,86.800 241.820,86.800 241.600 C 86.800 241.380,87.160 241.200,87.600 241.200 C 88.040 241.200,88.400 241.020,88.400 240.800 C 88.400 240.580,88.760 240.400,89.200 240.400 C 89.640 240.400,90.000 240.220,90.000 240.000 C 90.000 239.780,90.439 239.600,90.976 239.600 C 91.513 239.600,92.064 239.420,92.200 239.200 C 92.336 238.980,92.797 238.800,93.224 238.800 C 93.651 238.800,94.000 238.620,94.000 238.400 C 94.000 238.180,94.540 238.000,95.200 238.000 C 95.860 238.000,96.400 237.820,96.400 237.600 C 96.400 237.380,96.760 237.200,97.200 237.200 C 97.640 237.200,98.000 237.020,98.000 236.800 C 98.000 236.580,98.540 236.400,99.200 236.400 C 99.860 236.400,100.400 236.220,100.400 236.000 C 100.400 235.780,100.760 235.600,101.200 235.600 C 101.640 235.600,102.000 235.420,102.000 235.200 C 102.000 234.980,102.540 234.800,103.200 234.800 C 103.860 234.800,104.400 234.620,104.400 234.400 C 104.400 234.180,105.019 234.000,105.776 234.000 C 106.533 234.000,107.264 233.820,107.400 233.600 C 107.536 233.380,108.177 233.200,108.824 233.200 C 109.471 233.200,110.000 233.020,110.000 232.800 C 110.000 232.580,110.439 232.400,110.976 232.400 C 111.513 232.400,112.064 232.220,112.200 232.000 C 112.336 231.780,112.977 231.600,113.624 231.600 C 114.271 231.600,114.800 231.420,114.800 231.200 C 114.800 230.980,115.419 230.800,116.176 230.800 C 116.933 230.800,117.664 230.620,117.800 230.400 C 117.936 230.180,118.757 230.000,119.624 230.000 C 120.491 230.000,121.200 229.820,121.200 229.600 C 121.200 229.380,121.920 229.200,122.800 229.200 C 123.680 229.200,124.400 229.020,124.400 228.800 C 124.400 228.580,125.120 228.400,126.000 228.400 C 126.880 228.400,127.600 228.220,127.600 228.000 C 127.600 227.780,128.219 227.600,128.976 227.600 C 129.733 227.600,130.464 227.420,130.600 227.200 C 130.736 226.980,131.722 226.800,132.790 226.800 C 133.859 226.800,134.793 226.630,134.867 226.421 C 134.940 226.213,135.845 226.000,136.878 225.948 C 137.911 225.896,138.665 225.706,138.555 225.526 C 138.444 225.347,139.253 225.200,140.353 225.200 C 141.453 225.200,142.464 225.020,142.600 224.800 C 142.736 224.580,143.917 224.400,145.224 224.400 C 146.541 224.400,147.600 224.222,147.600 224.000 C 147.600 223.775,148.725 223.600,150.176 223.600 C 151.593 223.600,152.864 223.420,153.000 223.200 C 153.136 222.980,154.216 222.800,155.400 222.800 C 156.584 222.800,157.664 222.620,157.800 222.400 C 157.936 222.180,159.376 222.000,161.000 222.000 C 162.624 222.000,164.064 221.820,164.200 221.600 C 164.336 221.380,165.877 221.200,167.624 221.200 C 169.475 221.200,170.800 221.033,170.800 220.800 C 170.800 220.565,172.173 220.400,174.120 220.400 C 176.222 220.400,177.638 220.217,177.979 219.900 C 178.417 219.493,178.455 219.512,178.182 220.000 C 177.908 220.490,177.955 220.512,178.439 220.121 C 178.804 219.826,180.681 219.615,183.310 219.573 C 185.663 219.535,187.490 219.346,187.371 219.152 C 187.249 218.956,189.623 218.800,192.743 218.800 C 195.993 218.800,198.389 218.638,198.467 218.412 C 198.547 218.180,202.080 218.008,207.294 217.984 C 212.161 217.961,216.089 217.779,216.218 217.571 C 216.597 216.958,279.715 217.084,280.379 217.700 C 280.816 218.106,280.858 218.088,280.600 217.600 C 280.342 217.112,280.384 217.094,280.821 217.500 C 281.222 217.872,283.893 218.000,291.256 218.000 C 297.423 218.000,301.246 218.151,301.400 218.400 C 301.551 218.644,304.612 218.800,309.247 218.800 C 313.686 218.800,316.754 218.951,316.623 219.162 C 316.494 219.372,318.970 219.548,322.497 219.580 C 325.850 219.610,328.767 219.807,328.977 220.017 C 329.188 220.228,331.585 220.400,334.304 220.400 C 337.577 220.400,339.162 220.538,338.994 220.810 C 338.855 221.035,338.889 221.194,339.070 221.163 C 340.405 220.931,348.802 221.273,348.629 221.552 C 348.510 221.746,350.344 221.935,352.706 221.971 C 355.068 222.008,357.060 222.209,357.133 222.419 C 357.207 222.629,359.227 222.800,361.633 222.800 C 364.278 222.800,366.000 222.958,366.000 223.200 C 366.000 223.437,367.467 223.600,369.600 223.600 C 371.852 223.600,373.200 223.758,373.200 224.021 C 373.200 224.286,374.355 224.414,376.314 224.367 C 379.014 224.301,379.429 224.196,379.429 223.574 C 379.429 223.180,379.332 222.866,379.214 222.876 C 377.756 223.004,376.002 222.721,376.206 222.390 C 376.345 222.165,376.311 222.006,376.130 222.037 C 374.775 222.273,371.194 221.934,371.406 221.590 C 371.545 221.365,371.511 221.206,371.330 221.237 C 369.975 221.473,366.394 221.134,366.606 220.790 C 366.745 220.565,366.711 220.406,366.530 220.437 C 365.175 220.673,361.594 220.334,361.806 219.990 C 361.945 219.765,361.911 219.606,361.730 219.637 C 360.375 219.873,356.794 219.534,357.006 219.190 C 357.145 218.965,357.111 218.806,356.930 218.837 C 355.575 219.073,351.994 218.734,352.206 218.390 C 352.345 218.165,352.311 218.006,352.130 218.037 C 350.775 218.273,347.194 217.934,347.406 217.590 C 347.545 217.365,347.511 217.206,347.330 217.237 C 345.975 217.473,342.394 217.134,342.606 216.790 C 342.745 216.565,342.711 216.406,342.530 216.437 C 341.377 216.638,337.590 216.340,337.761 216.063 C 337.876 215.877,336.762 215.687,335.285 215.640 C 333.808 215.594,332.540 215.386,332.467 215.178 C 332.393 214.970,331.099 214.800,329.590 214.800 C 328.082 214.800,326.736 214.620,326.600 214.400 C 326.464 214.180,325.373 214.000,324.176 214.000 C 322.979 214.000,322.000 213.820,322.000 213.600 C 322.000 213.372,320.808 213.200,319.224 213.200 C 317.697 213.200,316.336 213.020,316.200 212.800 C 316.064 212.580,314.984 212.400,313.800 212.400 C 312.616 212.400,311.536 212.220,311.400 212.000 C 311.264 211.780,309.993 211.600,308.576 211.600 C 307.125 211.600,306.000 211.425,306.000 211.200 C 306.000 210.972,304.808 210.800,303.224 210.800 C 301.697 210.800,300.336 210.620,300.200 210.400 C 300.064 210.180,298.693 210.000,297.153 210.000 C 295.343 210.000,294.442 209.855,294.606 209.590 C 294.745 209.365,294.711 209.206,294.530 209.237 C 293.079 209.489,287.996 209.130,288.206 208.790 C 288.345 208.565,288.311 208.406,288.130 208.437 C 286.679 208.689,281.596 208.330,281.806 207.990 C 281.945 207.765,281.911 207.606,281.730 207.637 C 280.502 207.851,275.193 207.534,275.364 207.258 C 275.480 207.070,274.186 206.880,272.488 206.837 C 270.789 206.793,269.340 206.587,269.267 206.378 C 269.193 206.170,267.528 206.000,265.567 206.000 C 263.456 206.000,262.000 205.837,262.000 205.600 C 262.000 205.360,260.400 205.200,258.000 205.200 C 255.600 205.200,254.000 205.040,254.000 204.800 C 254.000 204.560,252.400 204.400,250.000 204.400 C 247.600 204.400,246.000 204.240,246.000 204.000 C 246.000 203.760,244.400 203.600,242.000 203.600 C 239.600 203.600,238.000 203.440,238.000 203.200 C 238.000 202.958,236.267 202.800,233.600 202.800 C 230.933 202.800,229.200 202.642,229.200 202.400 C 229.200 202.152,227.075 202.000,223.624 202.000 C 220.337 202.000,217.946 201.836,217.800 201.600 C 217.654 201.363,215.196 201.200,211.776 201.200 C 208.192 201.200,206.000 201.048,206.000 200.800 C 206.000 200.545,202.675 200.400,196.824 200.400 C 191.044 200.400,187.554 200.250,187.396 199.994 C 187.069 199.465,143.092 199.468,142.562 199.998 M189.200 328.800 L 189.200 336.400 191.200 336.400 L 193.200 336.400 193.200 334.400 L 193.200 332.400 195.576 332.400 C 196.883 332.400,198.064 332.220,198.200 332.000 C 198.336 331.780,198.887 331.600,199.424 331.600 C 199.961 331.600,200.400 331.420,200.400 331.200 C 200.400 330.980,200.683 330.800,201.029 330.800 C 201.827 330.800,202.800 329.840,202.800 329.052 C 202.800 328.719,202.965 328.345,203.167 328.220 C 203.587 327.961,203.526 325.393,203.090 324.956 C 202.930 324.797,202.800 324.331,202.800 323.921 C 202.800 323.511,202.531 323.072,202.202 322.946 C 201.874 322.819,201.721 322.527,201.864 322.296 C 202.007 322.065,201.942 321.988,201.721 322.125 C 201.499 322.262,200.976 322.116,200.559 321.800 C 199.990 321.369,198.472 321.222,194.500 321.213 L 189.200 321.200 189.200 328.800 M205.237 328.817 L 205.237 336.339 213.133 336.383 L 221.030 336.427 221.572 334.928 C 222.851 331.390,229.200 331.118,229.200 334.602 C 229.200 335.753,230.269 336.400,232.171 336.400 C 233.976 336.400,234.811 335.348,233.600 334.600 C 233.380 334.464,233.200 333.913,233.200 333.376 C 233.200 332.839,233.020 332.400,232.800 332.400 C 232.580 332.400,232.400 332.040,232.400 331.600 C 232.400 331.160,232.256 330.800,232.080 330.800 C 231.905 330.800,231.532 330.125,231.253 329.300 C 230.505 327.090,229.124 324.400,228.737 324.400 C 228.552 324.400,228.400 323.937,228.400 323.371 C 228.400 321.768,227.482 321.138,225.347 321.278 C 223.419 321.404,223.287 321.519,222.328 323.900 C 222.040 324.615,221.669 325.200,221.502 325.200 C 221.336 325.200,221.200 325.560,221.200 326.000 C 221.200 326.440,221.020 326.800,220.800 326.800 C 220.580 326.800,220.400 327.258,220.400 327.817 C 220.400 328.376,220.040 329.220,219.600 329.692 C 219.160 330.164,218.800 330.866,218.800 331.252 C 218.800 331.637,218.620 332.064,218.400 332.200 C 218.180 332.336,218.000 332.833,218.000 333.304 C 218.000 333.970,217.893 334.053,217.520 333.680 C 217.219 333.379,215.724 333.200,213.520 333.200 L 210.000 333.200 209.953 327.500 C 209.927 324.365,209.920 321.686,209.937 321.547 C 209.954 321.408,208.904 321.294,207.603 321.294 L 205.237 321.294 205.237 328.817 M234.837 328.800 L 234.837 336.306 237.200 336.306 L 239.563 336.306 239.563 328.800 L 239.563 321.294 237.200 321.294 L 234.837 321.294 234.837 328.800 M242.800 328.800 L 242.800 336.400 244.800 336.400 L 246.800 336.400 246.821 332.300 C 246.841 328.409,246.875 328.247,247.487 329.126 C 247.842 329.636,248.696 330.626,249.384 331.326 C 250.073 332.027,251.071 333.230,251.603 334.000 C 252.990 336.007,253.588 336.373,255.500 336.387 L 257.200 336.400 257.200 328.800 L 257.200 321.200 255.200 321.200 L 253.200 321.200 253.200 325.064 L 253.200 328.927 251.699 327.364 C 250.873 326.504,249.723 325.170,249.144 324.400 C 246.880 321.391,246.613 321.200,244.653 321.200 L 242.800 321.200 242.800 328.800 M262.230 321.649 C 262.350 321.842,262.244 322.000,261.995 322.000 C 261.529 322.000,261.038 322.438,260.000 323.778 C 259.467 324.467,259.467 324.516,260.000 324.218 C 260.488 323.945,260.507 323.983,260.100 324.421 C 258.928 325.684,260.433 329.200,262.147 329.200 C 262.506 329.200,262.800 329.380,262.800 329.600 C 262.800 329.820,263.441 330.000,264.224 330.000 C 265.094 330.000,265.549 330.159,265.394 330.410 C 265.255 330.635,265.289 330.794,265.470 330.763 C 267.409 330.426,268.449 330.840,268.327 331.900 C 268.151 333.428,264.295 333.749,262.393 332.395 C 261.170 331.524,260.400 331.613,260.400 332.624 C 260.400 332.941,260.220 333.200,260.000 333.200 C 259.210 333.200,259.622 334.525,260.700 335.453 C 261.801 336.400,270.000 336.968,270.000 336.098 C 270.000 335.931,270.540 335.556,271.200 335.264 C 272.620 334.635,273.137 329.200,271.776 329.200 C 271.407 329.200,271.269 329.012,271.438 328.738 C 271.607 328.464,271.549 328.385,271.294 328.542 C 271.058 328.688,270.593 328.536,270.261 328.204 C 269.929 327.872,269.115 327.600,268.452 327.600 C 267.789 327.600,267.136 327.420,267.000 327.200 C 266.864 326.980,266.373 326.800,265.908 326.800 C 264.571 326.800,263.497 325.646,264.189 324.954 C 264.831 324.312,269.200 324.178,269.200 324.800 C 269.200 325.020,269.740 325.200,270.400 325.200 C 271.321 325.200,271.600 325.020,271.600 324.424 C 271.600 323.997,271.780 323.536,272.000 323.400 C 272.707 322.963,272.431 322.474,271.103 321.811 C 269.699 321.111,261.809 320.967,262.230 321.649 M198.770 325.320 C 199.352 326.851,198.852 328.400,197.777 328.400 C 197.266 328.400,196.736 328.580,196.600 328.800 C 196.464 329.020,195.643 329.200,194.776 329.200 L 193.200 329.200 193.200 326.800 L 193.200 324.400 195.810 324.400 C 198.165 324.400,198.454 324.490,198.770 325.320 M226.800 328.983 C 226.800 329.897,226.644 330.000,225.249 330.000 L 223.697 330.000 224.523 328.205 C 225.441 326.210,226.800 326.675,226.800 328.983 " stroke="none" fill="#545454" fill-rule="evenodd"></path><path id="path4" d="" stroke="none" fill="#2c886c" fill-rule="evenodd"></path></g></svg>